<?xml version="1.0" encoding="us-ascii" standalone="no"?><svg xmlns="http://www.w3.org/2000/svg" xmlns:xlink="http://www.w3.org/1999/xlink" contentStyleType="text/css" height="919px" preserveAspectRatio="none" style="width:649px;height:919px;background:#FFFFFF;" version="1.1" viewBox="0 0 649 919" width="649px" zoomAndPan="magnify"><defs/><g><!--class Ludoteca--><g id="elem_Ludoteca"><rect codeLine="2" fill="#F1F1F1" height="162.4075" id="Ludoteca" rx="2.5" ry="2.5" style="stroke:#181818;stroke-width:0.5;" width="134" x="109.5" y="36"/><ellipse cx="142.95" cy="52" fill="#ADD1B2" rx="11" ry="11" style="stroke:#181818;stroke-width:1.0;"/><path d="M145.9188,57.6406 Q145.3406,57.9375 144.7,58.0781 Q144.0594,58.2344 143.3563,58.2344 Q140.8563,58.2344 139.5281,56.5938 Q138.2156,54.9375 138.2156,51.8125 Q138.2156,48.6875 139.5281,47.0313 Q140.8563,45.375 143.3563,45.375 Q144.0594,45.375 144.7,45.5313 Q145.3563,45.6875 145.9188,45.9844 L145.9188,48.7031 Q145.2938,48.125 144.7,47.8594 Q144.1063,47.5781 143.4813,47.5781 Q142.1375,47.5781 141.45,48.6563 Q140.7625,49.7188 140.7625,51.8125 Q140.7625,53.9063 141.45,54.9844 Q142.1375,56.0469 143.4813,56.0469 Q144.1063,56.0469 144.7,55.7813 Q145.2938,55.5 145.9188,54.9219 L145.9188,57.6406 Z " fill="#000000"/><text fill="#000000" font-family="sans-serif" font-size="14" lengthAdjust="spacing" textLength="61" x="161.05" y="57.432">Ludoteca</text><line style="stroke:#181818;stroke-width:0.5;" x1="110.5" x2="242.5" y1="68" y2="68"/><text fill="#000000" font-family="sans-serif" font-size="14" lengthAdjust="spacing" textLength="122" x="115.5" y="86.9659">monitorRecepcion</text><text fill="#000000" font-family="sans-serif" font-size="14" lengthAdjust="spacing" textLength="91" x="115.5" y="106.0339">monitorJuego</text><text fill="#000000" font-family="sans-serif" font-size="14" lengthAdjust="spacing" textLength="107" x="115.5" y="125.1018">pizarraDelSalon</text><line style="stroke:#181818;stroke-width:0.5;" x1="110.5" x2="242.5" y1="133.2038" y2="133.2038"/><text fill="#000000" font-family="sans-serif" font-size="14" lengthAdjust="spacing" textLength="114" x="115.5" y="152.1697">recibirNi&#241;o(ni&#241;o)</text><text fill="#000000" font-family="sans-serif" font-size="14" lengthAdjust="spacing" textLength="74" x="115.5" y="171.2376">actualizar()</text><text fill="#000000" font-family="sans-serif" font-size="14" lengthAdjust="spacing" textLength="74" x="115.5" y="190.3055">verEstado()</text></g><!--class Monitor--><g id="elem_Monitor"><rect codeLine="11" fill="#F1F1F1" height="219.6113" id="Monitor" rx="2.5" ry="2.5" style="stroke:#181818;stroke-width:0.5;" width="165" x="292" y="7"/><ellipse cx="343.75" cy="23" fill="#ADD1B2" rx="11" ry="11" style="stroke:#181818;stroke-width:1.0;"/><path d="M346.7188,28.6406 Q346.1406,28.9375 345.5,29.0781 Q344.8594,29.2344 344.1563,29.2344 Q341.6563,29.2344 340.3281,27.5938 Q339.0156,25.9375 339.0156,22.8125 Q339.0156,19.6875 340.3281,18.0313 Q341.6563,16.375 344.1563,16.375 Q344.8594,16.375 345.5,16.5313 Q346.1563,16.6875 346.7188,16.9844 L346.7188,19.7031 Q346.0938,19.125 345.5,18.8594 Q344.9063,18.5781 344.2813,18.5781 Q342.9375,18.5781 342.25,19.6563 Q341.5625,20.7188 341.5625,22.8125 Q341.5625,24.9063 342.25,25.9844 Q342.9375,27.0469 344.2813,27.0469 Q344.9063,27.0469 345.5,26.7813 Q346.0938,26.5 346.7188,25.9219 L346.7188,28.6406 Z " fill="#000000"/><text fill="#000000" font-family="sans-serif" font-size="14" lengthAdjust="spacing" textLength="53" x="364.25" y="28.432">Monitor</text><line style="stroke:#181818;stroke-width:0.5;" x1="293" x2="456" y1="39" y2="39"/><text fill="#000000" font-family="sans-serif" font-size="14" lengthAdjust="spacing" textLength="53" x="298" y="57.9659">nombre</text><text fill="#000000" font-family="sans-serif" font-size="14" lengthAdjust="spacing" textLength="66" x="298" y="77.0339">colaNi&#241;os</text><text fill="#000000" font-family="sans-serif" font-size="14" lengthAdjust="spacing" textLength="84" x="298" y="96.1018">estaJugando</text><text fill="#000000" font-family="sans-serif" font-size="14" lengthAdjust="spacing" textLength="70" x="298" y="115.1697">ni&#241;oTurno</text><line style="stroke:#181818;stroke-width:0.5;" x1="293" x2="456" y1="123.2717" y2="123.2717"/><text fill="#000000" font-family="sans-serif" font-size="14" lengthAdjust="spacing" textLength="112" x="298" y="142.2376">recibeNi&#241;o(ni&#241;o)</text><text fill="#000000" font-family="sans-serif" font-size="14" lengthAdjust="spacing" textLength="81" x="298" y="161.3055">tieneNi&#241;os()</text><text fill="#000000" font-family="sans-serif" font-size="14" lengthAdjust="spacing" textLength="87" x="298" y="180.3734">puedeJugar()</text><text fill="#000000" font-family="sans-serif" font-size="14" lengthAdjust="spacing" textLength="131" x="298" y="199.4414">mostrarListaNi&#241;os()</text><text fill="#000000" font-family="sans-serif" font-size="14" lengthAdjust="spacing" textLength="153" x="298" y="218.5093">entregaNi&#241;os(monitor)</text></g><!--class MonitorRecepcion--><g id="elem_MonitorRecepcion"><rect codeLine="23" fill="#F1F1F1" height="67.0679" id="MonitorRecepcion" rx="2.5" ry="2.5" style="stroke:#181818;stroke-width:0.5;" width="154" x="196.5" y="353.5"/><ellipse cx="211.5" cy="369.5" fill="#ADD1B2" rx="11" ry="11" style="stroke:#181818;stroke-width:1.0;"/><path d="M214.4688,375.1406 Q213.8906,375.4375 213.25,375.5781 Q212.6094,375.7344 211.9063,375.7344 Q209.4063,375.7344 208.0781,374.0938 Q206.7656,372.4375 206.7656,369.3125 Q206.7656,366.1875 208.0781,364.5313 Q209.4063,362.875 211.9063,362.875 Q212.6094,362.875 213.25,363.0313 Q213.9063,363.1875 214.4688,363.4844 L214.4688,366.2031 Q213.8438,365.625 213.25,365.3594 Q212.6563,365.0781 212.0313,365.0781 Q210.6875,365.0781 210,366.1563 Q209.3125,367.2188 209.3125,369.3125 Q209.3125,371.4063 210,372.4844 Q210.6875,373.5469 212.0313,373.5469 Q212.6563,373.5469 213.25,373.2813 Q213.8438,373 214.4688,372.4219 L214.4688,375.1406 Z " fill="#000000"/><text fill="#000000" font-family="sans-serif" font-size="14" lengthAdjust="spacing" textLength="122" x="225.5" y="374.932">MonitorRecepcion</text><line style="stroke:#181818;stroke-width:0.5;" x1="197.5" x2="349.5" y1="385.5" y2="385.5"/><line style="stroke:#181818;stroke-width:0.5;" x1="197.5" x2="349.5" y1="393.5" y2="393.5"/><text fill="#000000" font-family="sans-serif" font-size="14" lengthAdjust="spacing" textLength="84" x="202.5" y="412.4659">recibirNi&#241;o()</text></g><!--class MonitorJuego--><g id="elem_MonitorJuego"><rect codeLine="27" fill="#F1F1F1" height="124.2717" id="MonitorJuego" rx="2.5" ry="2.5" style="stroke:#181818;stroke-width:0.5;" width="123" x="38" y="325"/><ellipse cx="53" cy="341" fill="#ADD1B2" rx="11" ry="11" style="stroke:#181818;stroke-width:1.0;"/><path d="M55.9688,346.6406 Q55.3906,346.9375 54.75,347.0781 Q54.1094,347.2344 53.4063,347.2344 Q50.9063,347.2344 49.5781,345.5938 Q48.2656,343.9375 48.2656,340.8125 Q48.2656,337.6875 49.5781,336.0313 Q50.9063,334.375 53.4063,334.375 Q54.1094,334.375 54.75,334.5313 Q55.4063,334.6875 55.9688,334.9844 L55.9688,337.7031 Q55.3438,337.125 54.75,336.8594 Q54.1563,336.5781 53.5313,336.5781 Q52.1875,336.5781 51.5,337.6563 Q50.8125,338.7188 50.8125,340.8125 Q50.8125,342.9063 51.5,343.9844 Q52.1875,345.0469 53.5313,345.0469 Q54.1563,345.0469 54.75,344.7813 Q55.3438,344.5 55.9688,343.9219 L55.9688,346.6406 Z " fill="#000000"/><text fill="#000000" font-family="sans-serif" font-size="14" lengthAdjust="spacing" textLength="91" x="67" y="346.432">MonitorJuego</text><line style="stroke:#181818;stroke-width:0.5;" x1="39" x2="160" y1="357" y2="357"/><line style="stroke:#181818;stroke-width:0.5;" x1="39" x2="160" y1="365" y2="365"/><text fill="#000000" font-family="sans-serif" font-size="14" lengthAdjust="spacing" textLength="83" x="44" y="383.9659">formarCola()</text><text fill="#000000" font-family="sans-serif" font-size="14" lengthAdjust="spacing" textLength="83" x="44" y="403.0339">darPizarrin()</text><text fill="#000000" font-family="sans-serif" font-size="14" lengthAdjust="spacing" textLength="88" x="44" y="422.1018">iniciarJuego()</text><text fill="#000000" font-family="sans-serif" font-size="14" lengthAdjust="spacing" textLength="44" x="44" y="441.1697">jugar()</text></g><!--class Ni?o--><g id="elem_Ni&#241;o"><rect codeLine="34" fill="#F1F1F1" height="162.4075" id="Ni&#241;o" rx="2.5" ry="2.5" style="stroke:#181818;stroke-width:0.5;" width="178" x="435.5" y="547"/><ellipse cx="504.25" cy="563" fill="#ADD1B2" rx="11" ry="11" style="stroke:#181818;stroke-width:1.0;"/><path d="M507.2188,568.6406 Q506.6406,568.9375 506,569.0781 Q505.3594,569.2344 504.6563,569.2344 Q502.1563,569.2344 500.8281,567.5938 Q499.5156,565.9375 499.5156,562.8125 Q499.5156,559.6875 500.8281,558.0313 Q502.1563,556.375 504.6563,556.375 Q505.3594,556.375 506,556.5313 Q506.6563,556.6875 507.2188,556.9844 L507.2188,559.7031 Q506.5938,559.125 506,558.8594 Q505.4063,558.5781 504.7813,558.5781 Q503.4375,558.5781 502.75,559.6563 Q502.0625,560.7188 502.0625,562.8125 Q502.0625,564.9063 502.75,565.9844 Q503.4375,567.0469 504.7813,567.0469 Q505.4063,567.0469 506,566.7813 Q506.5938,566.5 507.2188,565.9219 L507.2188,568.6406 Z " fill="#000000"/><text fill="#000000" font-family="sans-serif" font-size="14" lengthAdjust="spacing" textLength="32" x="524.75" y="568.432">Ni&#241;o</text><line style="stroke:#181818;stroke-width:0.5;" x1="436.5" x2="612.5" y1="579" y2="579"/><text fill="#000000" font-family="sans-serif" font-size="14" lengthAdjust="spacing" textLength="53" x="441.5" y="597.9659">nombre</text><text fill="#000000" font-family="sans-serif" font-size="14" lengthAdjust="spacing" textLength="53" x="441.5" y="617.0339">pizarrin</text><line style="stroke:#181818;stroke-width:0.5;" x1="436.5" x2="612.5" y1="625.1358" y2="625.1358"/><text fill="#000000" font-family="sans-serif" font-size="14" lengthAdjust="spacing" textLength="152" x="441.5" y="644.1018">recibirPizarrin(pizarra)</text><text fill="#000000" font-family="sans-serif" font-size="14" lengthAdjust="spacing" textLength="166" x="441.5" y="663.1697">recibirMensaje(mensaje)</text><text fill="#000000" font-family="sans-serif" font-size="14" lengthAdjust="spacing" textLength="118" x="441.5" y="682.2376">mostrarMensaje()</text><text fill="#000000" font-family="sans-serif" font-size="14" lengthAdjust="spacing" textLength="108" x="441.5" y="701.3055">limpiarPizarrin()</text></g><!--class Pizarrin--><g id="elem_Pizarrin"><rect codeLine="43" fill="#F1F1F1" height="124.2717" id="Pizarrin" rx="2.5" ry="2.5" style="stroke:#181818;stroke-width:0.5;" width="185" x="432" y="788"/><ellipse cx="494.25" cy="804" fill="#ADD1B2" rx="11" ry="11" style="stroke:#181818;stroke-width:1.0;"/><path d="M497.2188,809.6406 Q496.6406,809.9375 496,810.0781 Q495.3594,810.2344 494.6563,810.2344 Q492.1563,810.2344 490.8281,808.5938 Q489.5156,806.9375 489.5156,803.8125 Q489.5156,800.6875 490.8281,799.0313 Q492.1563,797.375 494.6563,797.375 Q495.3594,797.375 496,797.5313 Q496.6563,797.6875 497.2188,797.9844 L497.2188,800.7031 Q496.5938,800.125 496,799.8594 Q495.4063,799.5781 494.7813,799.5781 Q493.4375,799.5781 492.75,800.6563 Q492.0625,801.7188 492.0625,803.8125 Q492.0625,805.9063 492.75,806.9844 Q493.4375,808.0469 494.7813,808.0469 Q495.4063,808.0469 496,807.7813 Q496.5938,807.5 497.2188,806.9219 L497.2188,809.6406 Z " fill="#000000"/><text fill="#000000" font-family="sans-serif" font-size="14" lengthAdjust="spacing" textLength="52" x="514.75" y="809.432">Pizarrin</text><line style="stroke:#181818;stroke-width:0.5;" x1="433" x2="616" y1="820" y2="820"/><text fill="#000000" font-family="sans-serif" font-size="14" lengthAdjust="spacing" textLength="57" x="438" y="838.9659">mensaje</text><line style="stroke:#181818;stroke-width:0.5;" x1="433" x2="616" y1="847.0679" y2="847.0679"/><text fill="#000000" font-family="sans-serif" font-size="14" lengthAdjust="spacing" textLength="173" x="438" y="866.0339">escribirMensaje(mensaje)</text><text fill="#000000" font-family="sans-serif" font-size="14" lengthAdjust="spacing" textLength="91" x="438" y="885.1018">leerMensaje()</text><text fill="#000000" font-family="sans-serif" font-size="14" lengthAdjust="spacing" textLength="56" x="438" y="904.1697">limpiar()</text></g><!--class Cola--><g id="elem_Cola"><rect codeLine="50" fill="#F1F1F1" height="162.4075" id="Cola" rx="2.5" ry="2.5" style="stroke:#181818;stroke-width:0.5;" width="108" x="385.5" y="306"/><ellipse cx="421.65" cy="322" fill="#ADD1B2" rx="11" ry="11" style="stroke:#181818;stroke-width:1.0;"/><path d="M424.6188,327.6406 Q424.0406,327.9375 423.4,328.0781 Q422.7594,328.2344 422.0563,328.2344 Q419.5563,328.2344 418.2281,326.5938 Q416.9156,324.9375 416.9156,321.8125 Q416.9156,318.6875 418.2281,317.0313 Q419.5563,315.375 422.0563,315.375 Q422.7594,315.375 423.4,315.5313 Q424.0563,315.6875 424.6188,315.9844 L424.6188,318.7031 Q423.9938,318.125 423.4,317.8594 Q422.8063,317.5781 422.1813,317.5781 Q420.8375,317.5781 420.15,318.6563 Q419.4625,319.7188 419.4625,321.8125 Q419.4625,323.9063 420.15,324.9844 Q420.8375,326.0469 422.1813,326.0469 Q422.8063,326.0469 423.4,325.7813 Q423.9938,325.5 424.6188,324.9219 L424.6188,327.6406 Z " fill="#000000"/><text fill="#000000" font-family="sans-serif" font-size="14" lengthAdjust="spacing" textLength="29" x="440.35" y="327.432">Cola</text><line style="stroke:#181818;stroke-width:0.5;" x1="386.5" x2="492.5" y1="338" y2="338"/><text fill="#000000" font-family="sans-serif" font-size="14" lengthAdjust="spacing" textLength="37" x="391.5" y="356.9659">ni&#241;os</text><text fill="#000000" font-family="sans-serif" font-size="14" lengthAdjust="spacing" textLength="83" x="391.5" y="376.0339">ni&#241;osEnCola</text><line style="stroke:#181818;stroke-width:0.5;" x1="386.5" x2="492.5" y1="384.1358" y2="384.1358"/><text fill="#000000" font-family="sans-serif" font-size="14" lengthAdjust="spacing" textLength="96" x="391.5" y="403.1018">addNi&#241;o(ni&#241;o)</text><text fill="#000000" font-family="sans-serif" font-size="14" lengthAdjust="spacing" textLength="90" x="391.5" y="422.1697">removeNi&#241;o()</text><text fill="#000000" font-family="sans-serif" font-size="14" lengthAdjust="spacing" textLength="71" x="391.5" y="441.2376">hayNi&#241;os()</text><text fill="#000000" font-family="sans-serif" font-size="14" lengthAdjust="spacing" textLength="34" x="391.5" y="460.3055">size()</text></g><!--class Juego--><g id="elem_Juego"><rect codeLine="59" fill="#F1F1F1" height="105.2038" id="Juego" rx="2.5" ry="2.5" style="stroke:#181818;stroke-width:0.5;" width="124" x="37.5" y="575.5"/><ellipse cx="76.8" cy="591.5" fill="#ADD1B2" rx="11" ry="11" style="stroke:#181818;stroke-width:1.0;"/><path d="M79.7688,597.1406 Q79.1906,597.4375 78.55,597.5781 Q77.9094,597.7344 77.2063,597.7344 Q74.7063,597.7344 73.3781,596.0938 Q72.0656,594.4375 72.0656,591.3125 Q72.0656,588.1875 73.3781,586.5313 Q74.7063,584.875 77.2063,584.875 Q77.9094,584.875 78.55,585.0313 Q79.2063,585.1875 79.7688,585.4844 L79.7688,588.2031 Q79.1438,587.625 78.55,587.3594 Q77.9563,587.0781 77.3313,587.0781 Q75.9875,587.0781 75.3,588.1563 Q74.6125,589.2188 74.6125,591.3125 Q74.6125,593.4063 75.3,594.4844 Q75.9875,595.5469 77.3313,595.5469 Q77.9563,595.5469 78.55,595.2813 Q79.1438,595 79.7688,594.4219 L79.7688,597.1406 Z " fill="#000000"/><text fill="#000000" font-family="sans-serif" font-size="14" lengthAdjust="spacing" textLength="38" x="96.2" y="596.932">Juego</text><line style="stroke:#181818;stroke-width:0.5;" x1="38.5" x2="160.5" y1="607.5" y2="607.5"/><text fill="#000000" font-family="sans-serif" font-size="14" lengthAdjust="spacing" textLength="89" x="43.5" y="626.4659">participantes</text><text fill="#000000" font-family="sans-serif" font-size="14" lengthAdjust="spacing" textLength="112" x="43.5" y="645.5339">mensajeOriginal</text><line style="stroke:#181818;stroke-width:0.5;" x1="38.5" x2="160.5" y1="653.6358" y2="653.6358"/><text fill="#000000" font-family="sans-serif" font-size="14" lengthAdjust="spacing" textLength="50" x="43.5" y="672.6018">iniciar()</text></g><!--class Pizarra--><g id="elem_Pizarra"><rect codeLine="65" fill="#F1F1F1" height="124.2717" id="Pizarra" rx="2.5" ry="2.5" style="stroke:#181818;stroke-width:0.5;" width="185" x="7" y="788"/><ellipse cx="71.75" cy="804" fill="#ADD1B2" rx="11" ry="11" style="stroke:#181818;stroke-width:1.0;"/><path d="M74.7188,809.6406 Q74.1406,809.9375 73.5,810.0781 Q72.8594,810.2344 72.1563,810.2344 Q69.6563,810.2344 68.3281,808.5938 Q67.0156,806.9375 67.0156,803.8125 Q67.0156,800.6875 68.3281,799.0313 Q69.6563,797.375 72.1563,797.375 Q72.8594,797.375 73.5,797.5313 Q74.1563,797.6875 74.7188,797.9844 L74.7188,800.7031 Q74.0938,800.125 73.5,799.8594 Q72.9063,799.5781 72.2813,799.5781 Q70.9375,799.5781 70.25,800.6563 Q69.5625,801.7188 69.5625,803.8125 Q69.5625,805.9063 70.25,806.9844 Q70.9375,808.0469 72.2813,808.0469 Q72.9063,808.0469 73.5,807.7813 Q74.0938,807.5 74.7188,806.9219 L74.7188,809.6406 Z " fill="#000000"/><text fill="#000000" font-family="sans-serif" font-size="14" lengthAdjust="spacing" textLength="47" x="92.25" y="809.432">Pizarra</text><line style="stroke:#181818;stroke-width:0.5;" x1="8" x2="191" y1="820" y2="820"/><text fill="#000000" font-family="sans-serif" font-size="14" lengthAdjust="spacing" textLength="57" x="13" y="838.9659">mensaje</text><line style="stroke:#181818;stroke-width:0.5;" x1="8" x2="191" y1="847.0679" y2="847.0679"/><text fill="#000000" font-family="sans-serif" font-size="14" lengthAdjust="spacing" textLength="173" x="13" y="866.0339">escribirMensaje(mensaje)</text><text fill="#000000" font-family="sans-serif" font-size="14" lengthAdjust="spacing" textLength="91" x="13" y="885.1018">leerMensaje()</text><text fill="#000000" font-family="sans-serif" font-size="14" lengthAdjust="spacing" textLength="56" x="13" y="904.1697">limpiar()</text></g><!--link Ludoteca to MonitorRecepcion--><g id="link_Ludoteca_MonitorRecepcion"><path codeLine="73" d="M205.47,198.05 C224.28,250.02 245.7576,309.3683 259.6376,347.7083 " fill="none" id="Ludoteca-to-MonitorRecepcion" style="stroke:#181818;stroke-width:1.0;"/><polygon fill="#181818" points="261.68,353.35,262.3775,343.5259,259.978,348.6486,254.8552,346.2491,261.68,353.35" style="stroke:#181818;stroke-width:1.0;"/><text fill="#000000" font-family="sans-serif" font-size="13" lengthAdjust="spacing" textLength="52" x="231.5" y="271.897">contiene</text></g><!--link Ludoteca to MonitorJuego--><g id="link_Ludoteca_MonitorJuego"><path codeLine="74" d="M137.42,198.22 C129.46,217.14 121.88,237.49 116.5,257 C110.49,278.78 107.2745,297.2603 104.7445,318.9703 " fill="none" id="Ludoteca-to-MonitorJuego" style="stroke:#181818;stroke-width:1.0;"/><polygon fill="#181818" points="104.05,324.93,109.0649,316.4535,104.6288,319.9636,101.1187,315.5275,104.05,324.93" style="stroke:#181818;stroke-width:1.0;"/><text fill="#000000" font-family="sans-serif" font-size="13" lengthAdjust="spacing" textLength="52" x="117.5" y="271.897">contiene</text></g><!--reverse link Monitor to MonitorRecepcion--><g id="link_Monitor_MonitorRecepcion"><path codeLine="77" d="M334.2919,244.3269 C328.6619,260.7469 328.53,260.38 322.5,276 C312.33,302.33 299.26,331.48 289.18,353.15 " fill="none" id="Monitor-backto-MonitorRecepcion" style="stroke:#181818;stroke-width:1.0;"/><polygon fill="none" points="340.13,227.3,328.6163,242.3809,339.9675,246.273,340.13,227.3" style="stroke:#181818;stroke-width:1.0;"/></g><!--reverse link Monitor to MonitorJuego--><g id="link_Monitor_MonitorJuego"><path codeLine="78" d="M311.9228,242.0623 C299.3428,260.2823 294.7,262.73 277.5,276 C241.1,304.09 217.86,282.25 178.5,306 C169.64,311.35 161.07,317.91 153.04,324.95 " fill="none" id="Monitor-backto-MonitorJuego" style="stroke:#181818;stroke-width:1.0;"/><polygon fill="none" points="322.15,227.25,306.9854,238.6533,316.8603,245.4714,322.15,227.25" style="stroke:#181818;stroke-width:1.0;"/></g><!--link Monitor to Cola--><g id="link_Monitor_Cola"><path codeLine="81" d="M400.94,227.01 C407.33,253.38 412.6475,275.2586 418.6475,300.0286 " fill="none" id="Monitor-to-Cola" style="stroke:#181818;stroke-width:1.0;"/><polygon fill="#181818" points="420.06,305.86,421.8288,296.1713,418.8829,301.0005,414.0536,298.0546,420.06,305.86" style="stroke:#181818;stroke-width:1.0;"/><text fill="#000000" font-family="sans-serif" font-size="13" lengthAdjust="spacing" textLength="52" x="411.5" y="271.897">gestiona</text></g><!--link Monitor to Ni?o--><g id="link_Monitor_Ni&#241;o"><path codeLine="82" d="M457.22,213.17 C477.94,241.42 498.06,273.53 511.5,306 C547.72,393.52 548.75,422.56 541.5,517 C540.75,526.73 540.4148,530.9502 539.1048,541.0102 " fill="none" id="Monitor-to-Ni&#241;o" style="stroke:#181818;stroke-width:1.0;"/><polygon fill="#181818" points="538.33,546.96,543.4587,538.5519,538.9756,542.0019,535.5256,537.5188,538.33,546.96" style="stroke:#181818;stroke-width:1.0;"/><text fill="#000000" font-family="sans-serif" font-size="13" lengthAdjust="spacing" textLength="96" x="545.5" y="392.397">recibe y entrega</text></g><!--link Ni?o to Pizarrin--><g id="link_Ni&#241;o_Pizarrin"><path codeLine="85" d="M524.5,709.05 C524.5,735.09 524.5,757.56 524.5,781.99 " fill="none" id="Ni&#241;o-to-Pizarrin" style="stroke:#181818;stroke-width:1.0;"/><polygon fill="#181818" points="524.5,787.99,528.5,778.99,524.5,782.99,520.5,778.99,524.5,787.99" style="stroke:#181818;stroke-width:1.0;"/><text fill="#000000" font-family="sans-serif" font-size="13" lengthAdjust="spacing" textLength="36" x="525.5" y="753.897">posee</text></g><!--link Cola to Ni?o--><g id="link_Cola_Ni&#241;o"><path codeLine="88" d="M466.5,468.29 C472.04,484.45 477.89,501.29 483.5,517 C486.96,526.69 488.582,531.2076 492.272,541.2576 " fill="none" id="Cola-to-Ni&#241;o" style="stroke:#181818;stroke-width:1.0;"/><polygon fill="#181818" points="494.34,546.89,494.9929,537.0628,492.6167,542.1964,487.4831,539.8201,494.34,546.89" style="stroke:#181818;stroke-width:1.0;"/><text fill="#000000" font-family="sans-serif" font-size="13" lengthAdjust="spacing" textLength="52" x="484.5" y="512.897">contiene</text></g><!--link MonitorJuego to Juego--><g id="link_MonitorJuego_Juego"><path codeLine="91" d="M99.5,449.24 C99.5,488.24 99.5,532.2 99.5,569.22 " fill="none" id="MonitorJuego-to-Juego" style="stroke:#181818;stroke-width:1.0;"/><polygon fill="#181818" points="99.5,575.22,103.5,566.22,99.5,570.22,95.5,566.22,99.5,575.22" style="stroke:#181818;stroke-width:1.0;"/><text fill="#000000" font-family="sans-serif" font-size="13" lengthAdjust="spacing" textLength="30" x="100.5" y="512.897">inicia</text></g><!--link Juego to Pizarra--><g id="link_Juego_Pizarra"><path codeLine="94" d="M99.5,680.58 C99.5,712.71 99.5,748.21 99.5,781.98 " fill="none" id="Juego-to-Pizarra" style="stroke:#181818;stroke-width:1.0;"/><polygon fill="#181818" points="99.5,787.98,103.5,778.98,99.5,782.98,95.5,778.98,99.5,787.98" style="stroke:#181818;stroke-width:1.0;"/><text fill="#000000" font-family="sans-serif" font-size="13" lengthAdjust="spacing" textLength="42" x="100.5" y="753.897">escribe</text></g><!--SRC=[hLHBJiD03Dtd55csYruWGco03QA0W0kOYGckafd8CwdK0eVY35oC-QOJJTdHHPiysy_FlueUjAxlfbOP551_LBNz34gIKVo40aT1IkRWxOITyi18Hs26Q-oVeOzEZ89UYU_fvrkjfFjUUno4cQ1t0Qi0x95lj85MsVUlgX9UnZQaY2ga6buP_QDGFNXExL_HHjvE7SWsAF69NYQMwYG22ms6K0PKHn7ZX2qwegHgKDemy1tP10jFb8QnIrXiHQbyxbWiOT6EqjttChg-AHw0hsoXCMKB_EWxJ38Y94aGXAW8xQBucTcdAXiuHgPSrSmU1xdEZLkK6dQu6iBleZt95i2UXf4MMcSn2Kjh5UBY20N_cQT7F9ya9tUjIeMULYCytaXd3PlNjiKcC0vgZsag3dc7msBUcewO9yidDG8REuWHf46T5_R0r964FXzMsGxuvsvKy_5kDfVb8ZRsUAHV_REEeR3CgQhI5LvyRZO5trbh-4yuHJf-FvwcxkojsZ1OsCAIDl5GwqCwBqiHJCvfNfwc7fL6fynpvWIbwb2FyqcLXK5OZvCf3QA9ZSVg5m00]--></g></svg>