<?xml version="1.0" encoding="us-ascii" standalone="no"?><svg xmlns="http://www.w3.org/2000/svg" xmlns:xlink="http://www.w3.org/1999/xlink" contentStyleType="text/css" height="849px" preserveAspectRatio="none" style="width:354px;height:849px;background:#FFFFFF;" version="1.1" viewBox="0 0 354 849" width="354px" zoomAndPan="magnify"><defs/><g><ellipse cx="195" cy="16" fill="#222222" rx="10" ry="10" style="stroke:#222222;stroke-width:1.0;"/><g id="EsperandoJuego"><rect fill="#F1F1F1" height="88.1003" rx="12.5" ry="12.5" style="stroke:#181818;stroke-width:0.5;" width="193" x="98.5" y="87"/><line style="stroke:#181818;stroke-width:0.5;" x1="98.5" x2="291.5" y1="116.0679" y2="116.0679"/><text fill="#000000" font-family="sans-serif" font-size="14" lengthAdjust="spacing" textLength="110" x="140" y="106.9659">EsperandoJuego</text><text fill="#000000" font-family="sans-serif" font-size="12" lengthAdjust="spacing" textLength="127" x="103.5" y="133.896">MonitorJuego espera a</text><text fill="#000000" font-family="sans-serif" font-size="12" lengthAdjust="spacing" textLength="154" x="103.5" y="150.2401">que hayan suficientes ni&#241;os</text><text fill="#000000" font-family="sans-serif" font-size="12" lengthAdjust="spacing" textLength="173" x="103.5" y="166.5842">en la cola para iniciar un juego.</text></g><g id="IniciandoJuego"><rect fill="#F1F1F1" height="88.1003" rx="12.5" ry="12.5" style="stroke:#181818;stroke-width:0.5;" width="158" x="38" y="254"/><line style="stroke:#181818;stroke-width:0.5;" x1="38" x2="196" y1="283.0679" y2="283.0679"/><text fill="#000000" font-family="sans-serif" font-size="14" lengthAdjust="spacing" textLength="101" x="66.5" y="273.9659">IniciandoJuego</text><text fill="#000000" font-family="sans-serif" font-size="12" lengthAdjust="spacing" textLength="136" x="43" y="300.896">MonitorJuego prepara el</text><text fill="#000000" font-family="sans-serif" font-size="12" lengthAdjust="spacing" textLength="138" x="43" y="317.2401">juego limpiando pizarras</text><text fill="#000000" font-family="sans-serif" font-size="12" lengthAdjust="spacing" textLength="68" x="43" y="333.5842">y pizarrines.</text></g><g id="PasandoMensaje"><rect fill="#F1F1F1" height="88.1003" rx="12.5" ry="12.5" style="stroke:#181818;stroke-width:0.5;" width="152" x="7" y="421"/><line style="stroke:#181818;stroke-width:0.5;" x1="7" x2="159" y1="450.0679" y2="450.0679"/><text fill="#000000" font-family="sans-serif" font-size="14" lengthAdjust="spacing" textLength="114" x="26" y="440.9659">PasandoMensaje</text><text fill="#000000" font-family="sans-serif" font-size="12" lengthAdjust="spacing" textLength="132" x="12" y="467.896">MonitorJuego escribe el</text><text fill="#000000" font-family="sans-serif" font-size="12" lengthAdjust="spacing" textLength="124" x="12" y="484.2401">mensaje en el pizarr&#237;n</text><text fill="#000000" font-family="sans-serif" font-size="12" lengthAdjust="spacing" textLength="88" x="12" y="500.5842">del primer ni&#241;o.</text></g><g id="ControlandoCola"><rect fill="#F1F1F1" height="88.1003" rx="12.5" ry="12.5" style="stroke:#181818;stroke-width:0.5;" width="175" x="10.5" y="588"/><line style="stroke:#181818;stroke-width:0.5;" x1="10.5" x2="185.5" y1="617.0679" y2="617.0679"/><text fill="#000000" font-family="sans-serif" font-size="14" lengthAdjust="spacing" textLength="112" x="42" y="607.9659">ControlandoCola</text><text fill="#000000" font-family="sans-serif" font-size="12" lengthAdjust="spacing" textLength="132" x="15.5" y="634.896">MonitorJuego verifica el</text><text fill="#000000" font-family="sans-serif" font-size="12" lengthAdjust="spacing" textLength="155" x="15.5" y="651.2401">progreso del mensaje entre</text><text fill="#000000" font-family="sans-serif" font-size="12" lengthAdjust="spacing" textLength="108" x="15.5" y="667.5842">los ni&#241;os de la cola.</text></g><g id="FinalizandoJuego"><rect fill="#F1F1F1" height="88.1003" rx="12.5" ry="12.5" style="stroke:#181818;stroke-width:0.5;" width="146" x="107" y="755"/><line style="stroke:#181818;stroke-width:0.5;" x1="107" x2="253" y1="784.0679" y2="784.0679"/><text fill="#000000" font-family="sans-serif" font-size="14" lengthAdjust="spacing" textLength="115" x="122.5" y="774.9659">FinalizandoJuego</text><text fill="#000000" font-family="sans-serif" font-size="12" lengthAdjust="spacing" textLength="75" x="112" y="801.896">El &#250;ltimo ni&#241;o</text><text fill="#000000" font-family="sans-serif" font-size="12" lengthAdjust="spacing" textLength="105" x="112" y="818.2401">escribe el mensaje</text><text fill="#000000" font-family="sans-serif" font-size="12" lengthAdjust="spacing" textLength="126" x="112" y="834.5842">en la pizarra del sal&#243;n.</text></g><!--link *start* to EsperandoJuego--><g id="link_*start*_EsperandoJuego"><path d="M195,26.25 C195,39.48 195,58.67 195,80.92 " fill="none" id="*start*-to-EsperandoJuego" style="stroke:#181818;stroke-width:1.0;"/><polygon fill="#181818" points="195,86.92,199,77.92,195,81.92,191,77.92,195,86.92" style="stroke:#181818;stroke-width:1.0;"/></g><!--link EsperandoJuego to IniciandoJuego--><g id="link_EsperandoJuego_IniciandoJuego"><path d="M174.51,175.35 C163.04,199.6 151.3634,224.3052 139.9234,248.5152 " fill="none" id="EsperandoJuego-to-IniciandoJuego" style="stroke:#181818;stroke-width:1.0;"/><polygon fill="#181818" points="137.36,253.94,144.8217,247.5117,139.4962,249.4193,137.5886,244.0938,137.36,253.94" style="stroke:#181818;stroke-width:1.0;"/><text fill="#000000" font-family="sans-serif" font-size="13" lengthAdjust="spacing" textLength="72" x="160" y="219.897">iniciar juego</text></g><!--link IniciandoJuego to PasandoMensaje--><g id="link_IniciandoJuego_PasandoMensaje"><path d="M107.36,342.2 C105.23,351.99 103,362.34 101,372 C97.7,387.94 95.3781,399.5709 92.3681,415.0109 " fill="none" id="IniciandoJuego-to-PasandoMensaje" style="stroke:#181818;stroke-width:1.0;"/><polygon fill="#181818" points="91.22,420.9,96.8682,412.8317,92.1767,415.9924,89.016,411.3009,91.22,420.9" style="stroke:#181818;stroke-width:1.0;"/><text fill="#000000" font-family="sans-serif" font-size="13" lengthAdjust="spacing" textLength="132" x="102" y="386.897">escribir mensaje inicial</text></g><!--link PasandoMensaje to ControlandoCola--><g id="link_PasandoMensaje_ControlandoCola"><path d="M72.67,509.19 C70.34,524.64 69.26,542.15 72,558 C73.69,567.81 74.656,572.3668 77.906,581.9668 " fill="none" id="PasandoMensaje-to-ControlandoCola" style="stroke:#181818;stroke-width:1.0;"/><polygon fill="#181818" points="79.83,587.65,80.7328,577.8426,78.2267,582.914,73.1552,580.4079,79.83,587.65" style="stroke:#181818;stroke-width:1.0;"/><text fill="#000000" font-family="sans-serif" font-size="13" lengthAdjust="spacing" textLength="161" x="73" y="553.897">controlar paso del mensaje</text></g><!--link ControlandoCola to FinalizandoJuego--><g id="link_ControlandoCola_FinalizandoJuego"><path d="M119.54,676.35 C131.6,700.6 143.9,725.3568 155.93,749.5668 " fill="none" id="ControlandoCola-to-FinalizandoJuego" style="stroke:#181818;stroke-width:1.0;"/><polygon fill="#181818" points="158.6,754.94,158.1772,745.1002,156.375,750.4623,151.0129,748.6602,158.6,754.94" style="stroke:#181818;stroke-width:1.0;"/><text fill="#000000" font-family="sans-serif" font-size="13" lengthAdjust="spacing" textLength="83" x="143" y="720.897">finalizar juego</text></g><!--link FinalizandoJuego to EsperandoJuego--><g id="link_FinalizandoJuego_EsperandoJuego"><path d="M216.53,754.94 C223.35,745.49 229.92,735.23 235,725 C253.88,686.94 261,675.49 261,633 C261,297 261,297 261,297 C261,254.96 254.93,243.91 239,205 C234.91,195 232.5878,189.9558 227.0478,180.4358 " fill="none" id="FinalizandoJuego-to-EsperandoJuego" style="stroke:#181818;stroke-width:1.0;"/><polygon fill="#181818" points="224.03,175.25,225.0995,185.0406,226.5448,179.5715,232.0139,181.0169,224.03,175.25" style="stroke:#181818;stroke-width:1.0;"/><text fill="#000000" font-family="sans-serif" font-size="13" lengthAdjust="spacing" textLength="84" x="262" y="470.397">reiniciar juego</text></g><!--SRC=[RPAnJiD038RtF8LdfF807LYg8e5KYPqmcDGjhYw-r9SWbNTYG6oiUJ5ybnng4fOevxD_V_VRppSli5hTmJOqf2Xx_zZHqHVJ8wnXvuLRhyEHqYrWAUUEu0qlA12w0rTCqb80uVxBXr98m25KtZuDMW6BfQ129t2AGhV5l554UKXPLxrpMQef5jSJj4OfjI9NIie7ntMJyg7X3rH50xkC_omK368c6I6UCCJ0ZYJWYQmBXKhvbHNgCJHGkMAHERCgbb7YoPLc2xcHeF-KKlRng5oJ3jOPqamr8csyj6fUMdWJBLsRiqD4pTxW8SgCFOfbyWJhdPHjNeDFZVgZqbJ085kbKfpFuxJRF4tZc-j7m7iMTFQggzaSnb0UtZyfMmVzZskvzaCZMvi_pp9DNgLnWWaqeEk_nL0McijzjZPAapNw1G00]--></g></svg>