<?xml version="1.0" encoding="us-ascii" standalone="no"?><svg xmlns="http://www.w3.org/2000/svg" xmlns:xlink="http://www.w3.org/1999/xlink" contentStyleType="text/css" height="386px" preserveAspectRatio="none" style="width:494px;height:386px;background:#FFFFFF;" version="1.1" viewBox="0 0 494 386" width="494px" zoomAndPan="magnify"><defs/><g><!--class Ludoteca--><g id="elem_Ludoteca"><rect fill="#F1F1F1" height="48" id="Ludoteca" rx="2.5" ry="2.5" style="stroke:#181818;stroke-width:0.5;" width="93" x="119.5" y="7"/><ellipse cx="134.5" cy="23" fill="#ADD1B2" rx="11" ry="11" style="stroke:#181818;stroke-width:1.0;"/><path d="M137.4688,28.6406 Q136.8906,28.9375 136.25,29.0781 Q135.6094,29.2344 134.9063,29.2344 Q132.4063,29.2344 131.0781,27.5938 Q129.7656,25.9375 129.7656,22.8125 Q129.7656,19.6875 131.0781,18.0313 Q132.4063,16.375 134.9063,16.375 Q135.6094,16.375 136.25,16.5313 Q136.9063,16.6875 137.4688,16.9844 L137.4688,19.7031 Q136.8438,19.125 136.25,18.8594 Q135.6563,18.5781 135.0313,18.5781 Q133.6875,18.5781 133,19.6563 Q132.3125,20.7188 132.3125,22.8125 Q132.3125,24.9063 133,25.9844 Q133.6875,27.0469 135.0313,27.0469 Q135.6563,27.0469 136.25,26.7813 Q136.8438,26.5 137.4688,25.9219 L137.4688,28.6406 Z " fill="#000000"/><text fill="#000000" font-family="sans-serif" font-size="14" lengthAdjust="spacing" textLength="61" x="148.5" y="28.432">Ludoteca</text><line style="stroke:#181818;stroke-width:0.5;" x1="120.5" x2="211.5" y1="39" y2="39"/><line style="stroke:#181818;stroke-width:0.5;" x1="120.5" x2="211.5" y1="47" y2="47"/></g><!--class MonitorRecepcion--><g id="elem_MonitorRecepcion"><rect fill="#F1F1F1" height="48" id="MonitorRecepcion" rx="2.5" ry="2.5" style="stroke:#181818;stroke-width:0.5;" width="154" x="7" y="115"/><ellipse cx="22" cy="131" fill="#ADD1B2" rx="11" ry="11" style="stroke:#181818;stroke-width:1.0;"/><path d="M24.9688,136.6406 Q24.3906,136.9375 23.75,137.0781 Q23.1094,137.2344 22.4063,137.2344 Q19.9063,137.2344 18.5781,135.5938 Q17.2656,133.9375 17.2656,130.8125 Q17.2656,127.6875 18.5781,126.0313 Q19.9063,124.375 22.4063,124.375 Q23.1094,124.375 23.75,124.5313 Q24.4063,124.6875 24.9688,124.9844 L24.9688,127.7031 Q24.3438,127.125 23.75,126.8594 Q23.1563,126.5781 22.5313,126.5781 Q21.1875,126.5781 20.5,127.6563 Q19.8125,128.7188 19.8125,130.8125 Q19.8125,132.9063 20.5,133.9844 Q21.1875,135.0469 22.5313,135.0469 Q23.1563,135.0469 23.75,134.7813 Q24.3438,134.5 24.9688,133.9219 L24.9688,136.6406 Z " fill="#000000"/><text fill="#000000" font-family="sans-serif" font-size="14" lengthAdjust="spacing" textLength="122" x="36" y="136.432">MonitorRecepcion</text><line style="stroke:#181818;stroke-width:0.5;" x1="8" x2="160" y1="147" y2="147"/><line style="stroke:#181818;stroke-width:0.5;" x1="8" x2="160" y1="155" y2="155"/></g><!--class MonitorJuego--><g id="elem_MonitorJuego"><rect fill="#F1F1F1" height="48" id="MonitorJuego" rx="2.5" ry="2.5" style="stroke:#181818;stroke-width:0.5;" width="123" x="196.5" y="115"/><ellipse cx="211.5" cy="131" fill="#ADD1B2" rx="11" ry="11" style="stroke:#181818;stroke-width:1.0;"/><path d="M214.4688,136.6406 Q213.8906,136.9375 213.25,137.0781 Q212.6094,137.2344 211.9063,137.2344 Q209.4063,137.2344 208.0781,135.5938 Q206.7656,133.9375 206.7656,130.8125 Q206.7656,127.6875 208.0781,126.0313 Q209.4063,124.375 211.9063,124.375 Q212.6094,124.375 213.25,124.5313 Q213.9063,124.6875 214.4688,124.9844 L214.4688,127.7031 Q213.8438,127.125 213.25,126.8594 Q212.6563,126.5781 212.0313,126.5781 Q210.6875,126.5781 210,127.6563 Q209.3125,128.7188 209.3125,130.8125 Q209.3125,132.9063 210,133.9844 Q210.6875,135.0469 212.0313,135.0469 Q212.6563,135.0469 213.25,134.7813 Q213.8438,134.5 214.4688,133.9219 L214.4688,136.6406 Z " fill="#000000"/><text fill="#000000" font-family="sans-serif" font-size="14" lengthAdjust="spacing" textLength="91" x="225.5" y="136.432">MonitorJuego</text><line style="stroke:#181818;stroke-width:0.5;" x1="197.5" x2="318.5" y1="147" y2="147"/><line style="stroke:#181818;stroke-width:0.5;" x1="197.5" x2="318.5" y1="155" y2="155"/></g><!--class Monitor--><g id="elem_Monitor"><rect fill="#F1F1F1" height="48" id="Monitor" rx="2.5" ry="2.5" style="stroke:#181818;stroke-width:0.5;" width="85" x="272.5" y="7"/><ellipse cx="287.5" cy="23" fill="#ADD1B2" rx="11" ry="11" style="stroke:#181818;stroke-width:1.0;"/><path d="M290.4688,28.6406 Q289.8906,28.9375 289.25,29.0781 Q288.6094,29.2344 287.9063,29.2344 Q285.4063,29.2344 284.0781,27.5938 Q282.7656,25.9375 282.7656,22.8125 Q282.7656,19.6875 284.0781,18.0313 Q285.4063,16.375 287.9063,16.375 Q288.6094,16.375 289.25,16.5313 Q289.9063,16.6875 290.4688,16.9844 L290.4688,19.7031 Q289.8438,19.125 289.25,18.8594 Q288.6563,18.5781 288.0313,18.5781 Q286.6875,18.5781 286,19.6563 Q285.3125,20.7188 285.3125,22.8125 Q285.3125,24.9063 286,25.9844 Q286.6875,27.0469 288.0313,27.0469 Q288.6563,27.0469 289.25,26.7813 Q289.8438,26.5 290.4688,25.9219 L290.4688,28.6406 Z " fill="#000000"/><text fill="#000000" font-family="sans-serif" font-size="14" lengthAdjust="spacing" textLength="53" x="301.5" y="28.432">Monitor</text><line style="stroke:#181818;stroke-width:0.5;" x1="273.5" x2="356.5" y1="39" y2="39"/><line style="stroke:#181818;stroke-width:0.5;" x1="273.5" x2="356.5" y1="47" y2="47"/></g><!--class Cola--><g id="elem_Cola"><rect fill="#F1F1F1" height="48" id="Cola" rx="2.5" ry="2.5" style="stroke:#181818;stroke-width:0.5;" width="61" x="426.5" y="115"/><ellipse cx="441.5" cy="131" fill="#ADD1B2" rx="11" ry="11" style="stroke:#181818;stroke-width:1.0;"/><path d="M444.4688,136.6406 Q443.8906,136.9375 443.25,137.0781 Q442.6094,137.2344 441.9063,137.2344 Q439.4063,137.2344 438.0781,135.5938 Q436.7656,133.9375 436.7656,130.8125 Q436.7656,127.6875 438.0781,126.0313 Q439.4063,124.375 441.9063,124.375 Q442.6094,124.375 443.25,124.5313 Q443.9063,124.6875 444.4688,124.9844 L444.4688,127.7031 Q443.8438,127.125 443.25,126.8594 Q442.6563,126.5781 442.0313,126.5781 Q440.6875,126.5781 440,127.6563 Q439.3125,128.7188 439.3125,130.8125 Q439.3125,132.9063 440,133.9844 Q440.6875,135.0469 442.0313,135.0469 Q442.6563,135.0469 443.25,134.7813 Q443.8438,134.5 444.4688,133.9219 L444.4688,136.6406 Z " fill="#000000"/><text fill="#000000" font-family="sans-serif" font-size="14" lengthAdjust="spacing" textLength="29" x="455.5" y="136.432">Cola</text><line style="stroke:#181818;stroke-width:0.5;" x1="427.5" x2="486.5" y1="147" y2="147"/><line style="stroke:#181818;stroke-width:0.5;" x1="427.5" x2="486.5" y1="155" y2="155"/></g><!--class Ni?o--><g id="elem_Ni&#241;o"><rect fill="#F1F1F1" height="48" id="Ni&#241;o" rx="2.5" ry="2.5" style="stroke:#181818;stroke-width:0.5;" width="64" x="384" y="223"/><ellipse cx="399" cy="239" fill="#ADD1B2" rx="11" ry="11" style="stroke:#181818;stroke-width:1.0;"/><path d="M401.9688,244.6406 Q401.3906,244.9375 400.75,245.0781 Q400.1094,245.2344 399.4063,245.2344 Q396.9063,245.2344 395.5781,243.5938 Q394.2656,241.9375 394.2656,238.8125 Q394.2656,235.6875 395.5781,234.0313 Q396.9063,232.375 399.4063,232.375 Q400.1094,232.375 400.75,232.5313 Q401.4063,232.6875 401.9688,232.9844 L401.9688,235.7031 Q401.3438,235.125 400.75,234.8594 Q400.1563,234.5781 399.5313,234.5781 Q398.1875,234.5781 397.5,235.6563 Q396.8125,236.7188 396.8125,238.8125 Q396.8125,240.9063 397.5,241.9844 Q398.1875,243.0469 399.5313,243.0469 Q400.1563,243.0469 400.75,242.7813 Q401.3438,242.5 401.9688,241.9219 L401.9688,244.6406 Z " fill="#000000"/><text fill="#000000" font-family="sans-serif" font-size="14" lengthAdjust="spacing" textLength="32" x="413" y="244.432">Ni&#241;o</text><line style="stroke:#181818;stroke-width:0.5;" x1="385" x2="447" y1="255" y2="255"/><line style="stroke:#181818;stroke-width:0.5;" x1="385" x2="447" y1="263" y2="263"/></g><!--class Pizarrin--><g id="elem_Pizarrin"><rect fill="#F1F1F1" height="48" id="Pizarrin" rx="2.5" ry="2.5" style="stroke:#181818;stroke-width:0.5;" width="84" x="374" y="331"/><ellipse cx="389" cy="347" fill="#ADD1B2" rx="11" ry="11" style="stroke:#181818;stroke-width:1.0;"/><path d="M391.9688,352.6406 Q391.3906,352.9375 390.75,353.0781 Q390.1094,353.2344 389.4063,353.2344 Q386.9063,353.2344 385.5781,351.5938 Q384.2656,349.9375 384.2656,346.8125 Q384.2656,343.6875 385.5781,342.0313 Q386.9063,340.375 389.4063,340.375 Q390.1094,340.375 390.75,340.5313 Q391.4063,340.6875 391.9688,340.9844 L391.9688,343.7031 Q391.3438,343.125 390.75,342.8594 Q390.1563,342.5781 389.5313,342.5781 Q388.1875,342.5781 387.5,343.6563 Q386.8125,344.7188 386.8125,346.8125 Q386.8125,348.9063 387.5,349.9844 Q388.1875,351.0469 389.5313,351.0469 Q390.1563,351.0469 390.75,350.7813 Q391.3438,350.5 391.9688,349.9219 L391.9688,352.6406 Z " fill="#000000"/><text fill="#000000" font-family="sans-serif" font-size="14" lengthAdjust="spacing" textLength="52" x="403" y="352.432">Pizarrin</text><line style="stroke:#181818;stroke-width:0.5;" x1="375" x2="457" y1="363" y2="363"/><line style="stroke:#181818;stroke-width:0.5;" x1="375" x2="457" y1="371" y2="371"/></g><!--class Juego--><g id="elem_Juego"><rect fill="#F1F1F1" height="48" id="Juego" rx="2.5" ry="2.5" style="stroke:#181818;stroke-width:0.5;" width="70" x="223" y="223"/><ellipse cx="238" cy="239" fill="#ADD1B2" rx="11" ry="11" style="stroke:#181818;stroke-width:1.0;"/><path d="M240.9688,244.6406 Q240.3906,244.9375 239.75,245.0781 Q239.1094,245.2344 238.4063,245.2344 Q235.9063,245.2344 234.5781,243.5938 Q233.2656,241.9375 233.2656,238.8125 Q233.2656,235.6875 234.5781,234.0313 Q235.9063,232.375 238.4063,232.375 Q239.1094,232.375 239.75,232.5313 Q240.4063,232.6875 240.9688,232.9844 L240.9688,235.7031 Q240.3438,235.125 239.75,234.8594 Q239.1563,234.5781 238.5313,234.5781 Q237.1875,234.5781 236.5,235.6563 Q235.8125,236.7188 235.8125,238.8125 Q235.8125,240.9063 236.5,241.9844 Q237.1875,243.0469 238.5313,243.0469 Q239.1563,243.0469 239.75,242.7813 Q240.3438,242.5 240.9688,241.9219 L240.9688,244.6406 Z " fill="#000000"/><text fill="#000000" font-family="sans-serif" font-size="14" lengthAdjust="spacing" textLength="38" x="252" y="244.432">Juego</text><line style="stroke:#181818;stroke-width:0.5;" x1="224" x2="292" y1="255" y2="255"/><line style="stroke:#181818;stroke-width:0.5;" x1="224" x2="292" y1="263" y2="263"/></g><!--class Pizarra--><g id="elem_Pizarra"><rect fill="#F1F1F1" height="48" id="Pizarra" rx="2.5" ry="2.5" style="stroke:#181818;stroke-width:0.5;" width="79" x="218.5" y="331"/><ellipse cx="233.5" cy="347" fill="#ADD1B2" rx="11" ry="11" style="stroke:#181818;stroke-width:1.0;"/><path d="M236.4688,352.6406 Q235.8906,352.9375 235.25,353.0781 Q234.6094,353.2344 233.9063,353.2344 Q231.4063,353.2344 230.0781,351.5938 Q228.7656,349.9375 228.7656,346.8125 Q228.7656,343.6875 230.0781,342.0313 Q231.4063,340.375 233.9063,340.375 Q234.6094,340.375 235.25,340.5313 Q235.9063,340.6875 236.4688,340.9844 L236.4688,343.7031 Q235.8438,343.125 235.25,342.8594 Q234.6563,342.5781 234.0313,342.5781 Q232.6875,342.5781 232,343.6563 Q231.3125,344.7188 231.3125,346.8125 Q231.3125,348.9063 232,349.9844 Q232.6875,351.0469 234.0313,351.0469 Q234.6563,351.0469 235.25,350.7813 Q235.8438,350.5 236.4688,349.9219 L236.4688,352.6406 Z " fill="#000000"/><text fill="#000000" font-family="sans-serif" font-size="14" lengthAdjust="spacing" textLength="47" x="247.5" y="352.432">Pizarra</text><line style="stroke:#181818;stroke-width:0.5;" x1="219.5" x2="296.5" y1="363" y2="363"/><line style="stroke:#181818;stroke-width:0.5;" x1="219.5" x2="296.5" y1="371" y2="371"/></g><!--link Ludoteca to MonitorRecepcion--><g id="link_Ludoteca_MonitorRecepcion"><path codeLine="2" d="M148.21,55 C134.55,72.66 115.76,96.94 102.04,114.68 " fill="none" id="Ludoteca-MonitorRecepcion" style="stroke:#181818;stroke-width:1.0;"/></g><!--link Ludoteca to MonitorJuego--><g id="link_Ludoteca_MonitorJuego"><path codeLine="3" d="M185.96,55 C201.29,72.66 222.36,96.94 237.76,114.68 " fill="none" id="Ludoteca-MonitorJuego" style="stroke:#181818;stroke-width:1.0;"/></g><!--reverse link Monitor to MonitorRecepcion--><g id="link_Monitor_MonitorRecepcion"><path codeLine="5" d="M255.9991,59.0747 C217.0191,76.9547 175.69,95.92 134.44,114.86 " fill="none" id="Monitor-backto-MonitorRecepcion" style="stroke:#181818;stroke-width:1.0;"/><polygon fill="none" points="272.36,51.57,253.4975,53.6211,258.5007,64.5283,272.36,51.57" style="stroke:#181818;stroke-width:1.0;"/></g><!--reverse link Monitor to MonitorJuego--><g id="link_Monitor_MonitorJuego"><path codeLine="6" d="M294.1096,70.8557 C284.6196,88.5157 280.08,96.94 270.54,114.68 " fill="none" id="Monitor-backto-MonitorJuego" style="stroke:#181818;stroke-width:1.0;"/><polygon fill="none" points="302.63,55,288.8244,68.0155,299.3948,73.6958,302.63,55" style="stroke:#181818;stroke-width:1.0;"/></g><!--link Monitor to Cola--><g id="link_Monitor_Cola"><path codeLine="8" d="M345.81,55 C369.63,72.78 402.45,97.28 426.25,115.04 " fill="none" id="Monitor-Cola" style="stroke:#181818;stroke-width:1.0;"/></g><!--link Monitor to Ni?o--><g id="link_Monitor_Ni&#241;o"><path codeLine="9" d="M326,55.31 C345.43,96.47 385.59,181.58 405.01,222.72 " fill="none" id="Monitor-Ni&#241;o" style="stroke:#181818;stroke-width:1.0;"/></g><!--link Ni?o to Pizarrin--><g id="link_Ni&#241;o_Pizarrin"><path codeLine="11" d="M416,271 C416,288.66 416,312.94 416,330.68 " fill="none" id="Ni&#241;o-Pizarrin" style="stroke:#181818;stroke-width:1.0;"/></g><!--link Cola to Ni?o--><g id="link_Cola_Ni&#241;o"><path codeLine="13" d="M448.1,163 C441.27,180.66 431.88,204.94 425.02,222.68 " fill="none" id="Cola-Ni&#241;o" style="stroke:#181818;stroke-width:1.0;"/></g><!--link MonitorJuego to Juego--><g id="link_MonitorJuego_Juego"><path codeLine="15" d="M258,163 C258,180.66 258,204.94 258,222.68 " fill="none" id="MonitorJuego-Juego" style="stroke:#181818;stroke-width:1.0;"/></g><!--link Juego to Pizarra--><g id="link_Juego_Pizarra"><path codeLine="17" d="M258,271 C258,288.66 258,312.94 258,330.68 " fill="none" id="Juego-Pizarra" style="stroke:#181818;stroke-width:1.0;"/></g><!--SRC=[yobDoIz9JKvKqDLLyCtFoop9BmfAJKujICxCprFWyi6KzIfDJSzNuEA2SXLiQh3en2eBredG29Hmpiz9L40MyCiyl15aE8G62WHaLYKM5MK2dS85Leoa1iKzG76Om-024Br02m00]--></g></svg>