<?xml version="1.0" encoding="us-ascii" standalone="no"?><svg xmlns="http://www.w3.org/2000/svg" xmlns:xlink="http://www.w3.org/1999/xlink" contentStyleType="text/css" height="725px" preserveAspectRatio="none" style="width:1729px;height:725px;background:#FFFFFF;" version="1.1" viewBox="0 0 1729 725" width="1729px" zoomAndPan="magnify"><defs/><g><g id="elem_ludoteca"><rect fill="#F1F1F1" height="88.2717" style="stroke:#181818;stroke-width:0.5;" width="220" x="741.5" y="7"/><text fill="#000000" font-family="sans-serif" font-size="14" lengthAdjust="spacing" textLength="58" x="822.5" y="23.9659">ludoteca</text><line style="stroke:#181818;stroke-width:0.5;" x1="742.5" x2="960.5" y1="30.0679" y2="30.0679"/><text fill="#000000" font-family="sans-serif" font-size="14" lengthAdjust="spacing" textLength="170" x="747.5" y="49.0339">monitorRecepcion = lydia</text><text fill="#000000" font-family="sans-serif" font-size="14" lengthAdjust="spacing" textLength="143" x="747.5" y="68.1018">monitorJuego = aisha</text><text fill="#000000" font-family="sans-serif" font-size="14" lengthAdjust="spacing" textLength="208" x="747.5" y="87.1697">pizarraDelSalon = pizarraSalon</text></g><g id="elem_lydia"><rect fill="#F1F1F1" height="88.2717" style="stroke:#181818;stroke-width:0.5;" width="193" x="602" y="174"/><text fill="#000000" font-family="sans-serif" font-size="14" lengthAdjust="spacing" textLength="32" x="682.5" y="190.9659">lydia</text><line style="stroke:#181818;stroke-width:0.5;" x1="603" x2="794" y1="197.0679" y2="197.0679"/><text fill="#000000" font-family="sans-serif" font-size="14" lengthAdjust="spacing" textLength="181" x="608" y="216.0339">colaNi&#241;os = colaEsperando</text><text fill="#000000" font-family="sans-serif" font-size="14" lengthAdjust="spacing" textLength="132" x="608" y="235.1018">estaJugando = false</text><text fill="#000000" font-family="sans-serif" font-size="14" lengthAdjust="spacing" textLength="112" x="608" y="254.1697">ni&#241;oTurno = null</text></g><g id="elem_aisha"><rect fill="#F1F1F1" height="88.2717" style="stroke:#181818;stroke-width:0.5;" width="177" x="982" y="174"/><text fill="#000000" font-family="sans-serif" font-size="14" lengthAdjust="spacing" textLength="36" x="1052.5" y="190.9659">aisha</text><line style="stroke:#181818;stroke-width:0.5;" x1="983" x2="1158" y1="197.0679" y2="197.0679"/><text fill="#000000" font-family="sans-serif" font-size="14" lengthAdjust="spacing" textLength="165" x="988" y="216.0339">colaNi&#241;os = colaJugando</text><text fill="#000000" font-family="sans-serif" font-size="14" lengthAdjust="spacing" textLength="128" x="988" y="235.1018">estaJugando = true</text><text fill="#000000" font-family="sans-serif" font-size="14" lengthAdjust="spacing" textLength="124" x="988" y="254.1697">ni&#241;oTurno = ni&#241;o1</text></g><g id="elem_colaEsperando"><rect fill="#F1F1F1" height="69.2038" style="stroke:#181818;stroke-width:0.5;" width="331" x="240" y="372"/><text fill="#000000" font-family="sans-serif" font-size="14" lengthAdjust="spacing" textLength="99" x="356" y="388.9659">colaEsperando</text><line style="stroke:#181818;stroke-width:0.5;" x1="241" x2="570" y1="395.0679" y2="395.0679"/><text fill="#000000" font-family="sans-serif" font-size="14" lengthAdjust="spacing" textLength="319" x="246" y="414.0339">ni&#241;os = [esperando1, esperando2, esperando3]</text><text fill="#000000" font-family="sans-serif" font-size="14" lengthAdjust="spacing" textLength="107" x="246" y="433.1018">ni&#241;osEnCola = 3</text></g><g id="elem_colaJugando"><rect fill="#F1F1F1" height="69.2038" style="stroke:#181818;stroke-width:0.5;" width="343" x="976" y="372"/><text fill="#000000" font-family="sans-serif" font-size="14" lengthAdjust="spacing" textLength="83" x="1106" y="388.9659">colaJugando</text><line style="stroke:#181818;stroke-width:0.5;" x1="977" x2="1318" y1="395.0679" y2="395.0679"/><text fill="#000000" font-family="sans-serif" font-size="14" lengthAdjust="spacing" textLength="331" x="982" y="414.0339">ni&#241;os = [ni&#241;o1, ni&#241;o2, ni&#241;o3, ni&#241;o4, ni&#241;o5, ni&#241;o6]</text><text fill="#000000" font-family="sans-serif" font-size="14" lengthAdjust="spacing" textLength="107" x="982" y="433.1018">ni&#241;osEnCola = 6</text></g><g id="elem_pizarraSalon"><rect fill="#F1F1F1" height="50.1358" style="stroke:#181818;stroke-width:0.5;" width="190" x="756.5" y="292"/><text fill="#000000" font-family="sans-serif" font-size="14" lengthAdjust="spacing" textLength="85" x="809" y="308.9659">pizarraSalon</text><line style="stroke:#181818;stroke-width:0.5;" x1="757.5" x2="945.5" y1="315.0679" y2="315.0679"/><text fill="#000000" font-family="sans-serif" font-size="14" lengthAdjust="spacing" textLength="178" x="762.5" y="334.0339">mensaje = "XYABCDEFGHI"</text></g><g id="elem_ni&#241;o1"><rect fill="#F1F1F1" height="69.2038" style="stroke:#181818;stroke-width:0.5;" width="142" x="808.5" y="520"/><text fill="#000000" font-family="sans-serif" font-size="14" lengthAdjust="spacing" textLength="38" x="860.5" y="536.9659">ni&#241;o1</text><line style="stroke:#181818;stroke-width:0.5;" x1="809.5" x2="949.5" y1="543.0679" y2="543.0679"/><text fill="#000000" font-family="sans-serif" font-size="14" lengthAdjust="spacing" textLength="121" x="814.5" y="562.0339">nombre = "Ni&#241;o1"</text><text fill="#000000" font-family="sans-serif" font-size="14" lengthAdjust="spacing" textLength="130" x="814.5" y="581.1018">pizarrin = pizarrin1</text></g><g id="elem_ni&#241;o2"><rect fill="#F1F1F1" height="69.2038" style="stroke:#181818;stroke-width:0.5;" width="142" x="1023.5" y="520"/><text fill="#000000" font-family="sans-serif" font-size="14" lengthAdjust="spacing" textLength="38" x="1075.5" y="536.9659">ni&#241;o2</text><line style="stroke:#181818;stroke-width:0.5;" x1="1024.5" x2="1164.5" y1="543.0679" y2="543.0679"/><text fill="#000000" font-family="sans-serif" font-size="14" lengthAdjust="spacing" textLength="121" x="1029.5" y="562.0339">nombre = "Ni&#241;o2"</text><text fill="#000000" font-family="sans-serif" font-size="14" lengthAdjust="spacing" textLength="130" x="1029.5" y="581.1018">pizarrin = pizarrin2</text></g><g id="elem_ni&#241;o3"><rect fill="#F1F1F1" height="69.2038" style="stroke:#181818;stroke-width:0.5;" width="142" x="1215.5" y="520"/><text fill="#000000" font-family="sans-serif" font-size="14" lengthAdjust="spacing" textLength="38" x="1267.5" y="536.9659">ni&#241;o3</text><line style="stroke:#181818;stroke-width:0.5;" x1="1216.5" x2="1356.5" y1="543.0679" y2="543.0679"/><text fill="#000000" font-family="sans-serif" font-size="14" lengthAdjust="spacing" textLength="121" x="1221.5" y="562.0339">nombre = "Ni&#241;o3"</text><text fill="#000000" font-family="sans-serif" font-size="14" lengthAdjust="spacing" textLength="130" x="1221.5" y="581.1018">pizarrin = pizarrin3</text></g><g id="elem_ni&#241;o4"><rect fill="#F1F1F1" height="69.2038" style="stroke:#181818;stroke-width:0.5;" width="142" x="1399.5" y="520"/><text fill="#000000" font-family="sans-serif" font-size="14" lengthAdjust="spacing" textLength="38" x="1451.5" y="536.9659">ni&#241;o4</text><line style="stroke:#181818;stroke-width:0.5;" x1="1400.5" x2="1540.5" y1="543.0679" y2="543.0679"/><text fill="#000000" font-family="sans-serif" font-size="14" lengthAdjust="spacing" textLength="121" x="1405.5" y="562.0339">nombre = "Ni&#241;o4"</text><text fill="#000000" font-family="sans-serif" font-size="14" lengthAdjust="spacing" textLength="130" x="1405.5" y="581.1018">pizarrin = pizarrin4</text></g><g id="elem_ni&#241;o5"><rect fill="#F1F1F1" height="69.2038" style="stroke:#181818;stroke-width:0.5;" width="142" x="1580.5" y="520"/><text fill="#000000" font-family="sans-serif" font-size="14" lengthAdjust="spacing" textLength="38" x="1632.5" y="536.9659">ni&#241;o5</text><line style="stroke:#181818;stroke-width:0.5;" x1="1581.5" x2="1721.5" y1="543.0679" y2="543.0679"/><text fill="#000000" font-family="sans-serif" font-size="14" lengthAdjust="spacing" textLength="121" x="1586.5" y="562.0339">nombre = "Ni&#241;o5"</text><text fill="#000000" font-family="sans-serif" font-size="14" lengthAdjust="spacing" textLength="130" x="1586.5" y="581.1018">pizarrin = pizarrin5</text></g><g id="elem_ni&#241;o6"><rect fill="#F1F1F1" height="69.2038" style="stroke:#181818;stroke-width:0.5;" width="142" x="631.5" y="520"/><text fill="#000000" font-family="sans-serif" font-size="14" lengthAdjust="spacing" textLength="38" x="683.5" y="536.9659">ni&#241;o6</text><line style="stroke:#181818;stroke-width:0.5;" x1="632.5" x2="772.5" y1="543.0679" y2="543.0679"/><text fill="#000000" font-family="sans-serif" font-size="14" lengthAdjust="spacing" textLength="121" x="637.5" y="562.0339">nombre = "Ni&#241;o6"</text><text fill="#000000" font-family="sans-serif" font-size="14" lengthAdjust="spacing" textLength="130" x="637.5" y="581.1018">pizarrin = pizarrin6</text></g><g id="elem_esperando1"><rect fill="#F1F1F1" height="69.2038" style="stroke:#181818;stroke-width:0.5;" width="173" x="7" y="520"/><text fill="#000000" font-family="sans-serif" font-size="14" lengthAdjust="spacing" textLength="80" x="53.5" y="536.9659">esperando1</text><line style="stroke:#181818;stroke-width:0.5;" x1="8" x2="179" y1="543.0679" y2="543.0679"/><text fill="#000000" font-family="sans-serif" font-size="14" lengthAdjust="spacing" textLength="161" x="13" y="562.0339">nombre = "Esperando1"</text><text fill="#000000" font-family="sans-serif" font-size="14" lengthAdjust="spacing" textLength="95" x="13" y="581.1018">pizarrin = null</text></g><g id="elem_esperando2"><rect fill="#F1F1F1" height="69.2038" style="stroke:#181818;stroke-width:0.5;" width="173" x="215" y="520"/><text fill="#000000" font-family="sans-serif" font-size="14" lengthAdjust="spacing" textLength="80" x="261.5" y="536.9659">esperando2</text><line style="stroke:#181818;stroke-width:0.5;" x1="216" x2="387" y1="543.0679" y2="543.0679"/><text fill="#000000" font-family="sans-serif" font-size="14" lengthAdjust="spacing" textLength="161" x="221" y="562.0339">nombre = "Esperando2"</text><text fill="#000000" font-family="sans-serif" font-size="14" lengthAdjust="spacing" textLength="95" x="221" y="581.1018">pizarrin = null</text></g><g id="elem_esperando3"><rect fill="#F1F1F1" height="69.2038" style="stroke:#181818;stroke-width:0.5;" width="173" x="423" y="520"/><text fill="#000000" font-family="sans-serif" font-size="14" lengthAdjust="spacing" textLength="80" x="469.5" y="536.9659">esperando3</text><line style="stroke:#181818;stroke-width:0.5;" x1="424" x2="595" y1="543.0679" y2="543.0679"/><text fill="#000000" font-family="sans-serif" font-size="14" lengthAdjust="spacing" textLength="161" x="429" y="562.0339">nombre = "Esperando3"</text><text fill="#000000" font-family="sans-serif" font-size="14" lengthAdjust="spacing" textLength="95" x="429" y="581.1018">pizarrin = null</text></g><g id="elem_pizarrin1"><rect fill="#F1F1F1" height="50.1358" style="stroke:#181818;stroke-width:0.5;" width="190" x="773.5" y="668"/><text fill="#000000" font-family="sans-serif" font-size="14" lengthAdjust="spacing" textLength="61" x="838" y="684.9659">pizarrin1</text><line style="stroke:#181818;stroke-width:0.5;" x1="774.5" x2="962.5" y1="691.0679" y2="691.0679"/><text fill="#000000" font-family="sans-serif" font-size="14" lengthAdjust="spacing" textLength="178" x="779.5" y="710.0339">mensaje = "XYABCDEFGHI"</text></g><g id="elem_pizarrin2"><rect fill="#F1F1F1" height="50.1358" style="stroke:#181818;stroke-width:0.5;" width="188" x="998.5" y="668"/><text fill="#000000" font-family="sans-serif" font-size="14" lengthAdjust="spacing" textLength="61" x="1062" y="684.9659">pizarrin2</text><line style="stroke:#181818;stroke-width:0.5;" x1="999.5" x2="1185.5" y1="691.0679" y2="691.0679"/><text fill="#000000" font-family="sans-serif" font-size="14" lengthAdjust="spacing" textLength="176" x="1004.5" y="710.0339">mensaje = "XZABCDGHIJK"</text></g><g id="elem_pizarrin3"><rect fill="#F1F1F1" height="50.1358" style="stroke:#181818;stroke-width:0.5;" width="195" x="1222" y="668"/><text fill="#000000" font-family="sans-serif" font-size="14" lengthAdjust="spacing" textLength="61" x="1289" y="684.9659">pizarrin3</text><line style="stroke:#181818;stroke-width:0.5;" x1="1223" x2="1416" y1="691.0679" y2="691.0679"/><text fill="#000000" font-family="sans-serif" font-size="14" lengthAdjust="spacing" textLength="183" x="1228" y="710.0339">mensaje = "XXZABCDGHIJX"</text></g><g id="elem_pizarrin4"><rect fill="#F1F1F1" height="50.1358" style="stroke:#181818;stroke-width:0.5;" width="111" x="1452" y="668"/><text fill="#000000" font-family="sans-serif" font-size="14" lengthAdjust="spacing" textLength="61" x="1477" y="684.9659">pizarrin4</text><line style="stroke:#181818;stroke-width:0.5;" x1="1453" x2="1562" y1="691.0679" y2="691.0679"/><text fill="#000000" font-family="sans-serif" font-size="14" lengthAdjust="spacing" textLength="99" x="1458" y="710.0339">mensaje = null</text></g><g id="elem_pizarrin5"><rect fill="#F1F1F1" height="50.1358" style="stroke:#181818;stroke-width:0.5;" width="111" x="1598" y="668"/><text fill="#000000" font-family="sans-serif" font-size="14" lengthAdjust="spacing" textLength="61" x="1623" y="684.9659">pizarrin5</text><line style="stroke:#181818;stroke-width:0.5;" x1="1599" x2="1708" y1="691.0679" y2="691.0679"/><text fill="#000000" font-family="sans-serif" font-size="14" lengthAdjust="spacing" textLength="99" x="1604" y="710.0339">mensaje = null</text></g><g id="elem_pizarrin6"><rect fill="#F1F1F1" height="50.1358" style="stroke:#181818;stroke-width:0.5;" width="111" x="627" y="668"/><text fill="#000000" font-family="sans-serif" font-size="14" lengthAdjust="spacing" textLength="61" x="652" y="684.9659">pizarrin6</text><line style="stroke:#181818;stroke-width:0.5;" x1="628" x2="737" y1="691.0679" y2="691.0679"/><text fill="#000000" font-family="sans-serif" font-size="14" lengthAdjust="spacing" textLength="99" x="633" y="710.0339">mensaje = null</text></g><!--link ludoteca to lydia--><g id="link_ludoteca_lydia"><path codeLine="103" d="M741.42,84.43 C723.59,94.57 707.41,107.79 696.5,125 C687.43,139.3 685.5972,151.5614 687.2872,168.0214 " fill="none" id="ludoteca-to-lydia" style="stroke:#181818;stroke-width:1.0;"/><polygon fill="#181818" points="687.9,173.99,690.9599,164.6285,687.3893,169.0161,683.0017,165.4456,687.9,173.99" style="stroke:#181818;stroke-width:1.0;"/><text fill="#000000" font-family="sans-serif" font-size="13" lengthAdjust="spacing" textLength="110" x="697.5" y="139.897">monitorRecepcion</text></g><!--link ludoteca to aisha--><g id="link_ludoteca_aisha"><path codeLine="104" d="M910.27,95.05 C923.53,104.85 937.53,115.25 950.5,125 C971.59,140.86 989.8519,154.7848 1010.0419,170.2948 " fill="none" id="ludoteca-to-aisha" style="stroke:#181818;stroke-width:1.0;"/><polygon fill="#181818" points="1014.8,173.95,1010.0996,165.2951,1010.8349,170.904,1005.226,171.6393,1014.8,173.95" style="stroke:#181818;stroke-width:1.0;"/><text fill="#000000" font-family="sans-serif" font-size="13" lengthAdjust="spacing" textLength="84" x="974.5" y="139.897">monitorJuego</text></g><!--link ludoteca to pizarraSalon--><g id="link_ludoteca_pizarraSalon"><path codeLine="105" d="M848.74,95.22 C848.22,105.01 847.76,115.36 847.5,125 C845.86,185.01 848.2572,249.6467 849.9672,285.8867 " fill="none" id="ludoteca-to-pizarraSalon" style="stroke:#181818;stroke-width:1.0;"/><polygon fill="#181818" points="850.25,291.88,853.8214,282.7015,850.0143,286.8856,845.8302,283.0785,850.25,291.88" style="stroke:#181818;stroke-width:1.0;"/><text fill="#000000" font-family="sans-serif" font-size="13" lengthAdjust="spacing" textLength="93" x="848.5" y="139.897">pizarraDelSalon</text></g><!--link lydia to colaEsperando--><g id="link_lydia_colaEsperando"><path codeLine="107" d="M630.91,262.02 C578.35,295.48 511.5421,338.0089 463.2021,368.7689 " fill="none" id="lydia-to-colaEsperando" style="stroke:#181818;stroke-width:1.0;"/><polygon fill="#181818" points="458.14,371.99,467.8805,370.533,462.3584,369.3057,463.5857,363.7836,458.14,371.99" style="stroke:#181818;stroke-width:1.0;"/><text fill="#000000" font-family="sans-serif" font-size="13" lengthAdjust="spacing" textLength="52" x="578.5" y="322.397">gestiona</text></g><!--link aisha to colaJugando--><g id="link_aisha_colaJugando"><path codeLine="108" d="M1088.36,262.26 C1102.13,295.61 1118.6204,335.544 1131.2904,366.234 " fill="none" id="aisha-to-colaJugando" style="stroke:#181818;stroke-width:1.0;"/><polygon fill="#181818" points="1133.58,371.78,1133.8429,361.9347,1131.672,367.1584,1126.4483,364.9874,1133.58,371.78" style="stroke:#181818;stroke-width:1.0;"/><text fill="#000000" font-family="sans-serif" font-size="13" lengthAdjust="spacing" textLength="52" x="1120.5" y="322.397">gestiona</text></g><!--link colaEsperando to esperando1--><g id="link_colaEsperando_esperando1"><path codeLine="110" d="M333.53,441.18 C282.96,464.84 221.0343,493.8167 170.5443,517.4467 " fill="none" id="colaEsperando-to-esperando1" style="stroke:#181818;stroke-width:1.0;"/><polygon fill="#181818" points="165.11,519.99,174.957,519.7979,169.6386,517.8706,171.5659,512.5522,165.11,519.99" style="stroke:#181818;stroke-width:1.0;"/><text fill="#000000" font-family="sans-serif" font-size="13" lengthAdjust="spacing" textLength="52" x="269.5" y="485.897">contiene</text></g><!--link colaEsperando to esperando2--><g id="link_colaEsperando_esperando2"><path codeLine="111" d="M381.38,441.36 C364.58,464.95 345.7404,491.3826 328.9704,514.9326 " fill="none" id="colaEsperando-to-esperando2" style="stroke:#181818;stroke-width:1.0;"/><polygon fill="#181818" points="325.49,519.82,333.9688,514.8091,328.3903,515.7471,327.4522,510.1686,325.49,519.82" style="stroke:#181818;stroke-width:1.0;"/><text fill="#000000" font-family="sans-serif" font-size="13" lengthAdjust="spacing" textLength="52" x="361.5" y="485.897">contiene</text></g><!--link colaEsperando to esperando3--><g id="link_colaEsperando_esperando3"><path codeLine="112" d="M429.62,441.36 C446.42,464.95 465.2596,491.3826 482.0296,514.9326 " fill="none" id="colaEsperando-to-esperando3" style="stroke:#181818;stroke-width:1.0;"/><polygon fill="#181818" points="485.51,519.82,483.5478,510.1686,482.6097,515.7471,477.0312,514.8091,485.51,519.82" style="stroke:#181818;stroke-width:1.0;"/><text fill="#000000" font-family="sans-serif" font-size="13" lengthAdjust="spacing" textLength="52" x="464.5" y="485.897">contiene</text></g><!--link colaJugando to ni?o1--><g id="link_colaJugando_ni&#241;o1"><path codeLine="114" d="M1085.68,441.18 C1042.24,464.84 989.6487,493.4894 946.2787,517.1194 " fill="none" id="colaJugando-to-ni&#241;o1" style="stroke:#181818;stroke-width:1.0;"/><polygon fill="#181818" points="941.01,519.99,950.8268,519.1965,945.4006,517.5978,946.9993,512.1716,941.01,519.99" style="stroke:#181818;stroke-width:1.0;"/><text fill="#000000" font-family="sans-serif" font-size="13" lengthAdjust="spacing" textLength="52" x="1030.5" y="485.897">contiene</text></g><!--link colaJugando to ni?o2--><g id="link_colaJugando_ni&#241;o2"><path codeLine="115" d="M1135.21,441.36 C1126.65,464.95 1117.3155,490.6294 1108.7755,514.1794 " fill="none" id="colaJugando-to-ni&#241;o2" style="stroke:#181818;stroke-width:1.0;"/><polygon fill="#181818" points="1106.73,519.82,1113.5586,512.7228,1108.4345,515.1195,1106.0378,509.9955,1106.73,519.82" style="stroke:#181818;stroke-width:1.0;"/><text fill="#000000" font-family="sans-serif" font-size="13" lengthAdjust="spacing" textLength="52" x="1124.5" y="485.897">contiene</text></g><!--link colaJugando to ni?o3--><g id="link_colaJugando_ni&#241;o3"><path codeLine="116" d="M1179.74,441.36 C1202.19,464.95 1227.8829,491.9244 1250.3029,515.4744 " fill="none" id="colaJugando-to-ni&#241;o3" style="stroke:#181818;stroke-width:1.0;"/><polygon fill="#181818" points="1254.44,519.82,1251.1314,510.5435,1250.9924,516.1987,1245.3373,516.0596,1254.44,519.82" style="stroke:#181818;stroke-width:1.0;"/><text fill="#000000" font-family="sans-serif" font-size="13" lengthAdjust="spacing" textLength="52" x="1225.5" y="485.897">contiene</text></g><!--link colaJugando to ni?o4--><g id="link_colaJugando_ni&#241;o4"><path codeLine="117" d="M1222.01,441.18 C1275.39,465.31 1341.3625,495.1288 1393.9525,518.8988 " fill="none" id="colaJugando-to-ni&#241;o4" style="stroke:#181818;stroke-width:1.0;"/><polygon fill="#181818" points="1399.42,521.37,1392.8663,514.0182,1394.8638,519.3107,1389.5713,521.3081,1399.42,521.37" style="stroke:#181818;stroke-width:1.0;"/><text fill="#000000" font-family="sans-serif" font-size="13" lengthAdjust="spacing" textLength="52" x="1328.5" y="485.897">contiene</text></g><!--link colaJugando to ni?o5--><g id="link_colaJugando_ni&#241;o5"><path codeLine="118" d="M1283.47,441.1 C1364.25,461.93 1468.38,490.32 1559.5,520 C1566.29,522.21 1567.6626,522.6301 1574.6826,525.0701 " fill="none" id="colaJugando-to-ni&#241;o5" style="stroke:#181818;stroke-width:1.0;"/><polygon fill="#181818" points="1580.35,527.04,1573.1621,520.3069,1575.6272,525.3984,1570.5356,527.8635,1580.35,527.04" style="stroke:#181818;stroke-width:1.0;"/><text fill="#000000" font-family="sans-serif" font-size="13" lengthAdjust="spacing" textLength="52" x="1459.5" y="485.897">contiene</text></g><!--link colaJugando to ni?o6--><g id="link_colaJugando_ni&#241;o6"><path codeLine="119" d="M1032,441.01 C1000.31,450.45 966.01,460.91 934.5,471 C870.52,491.49 854.72,497.28 791.5,520 C785.75,522.07 785.443,522.1736 779.473,524.3636 " fill="none" id="colaJugando-to-ni&#241;o6" style="stroke:#181818;stroke-width:1.0;"/><polygon fill="#181818" points="773.84,526.43,783.667,527.0858,778.5341,524.708,780.9119,519.5752,773.84,526.43" style="stroke:#181818;stroke-width:1.0;"/><text fill="#000000" font-family="sans-serif" font-size="13" lengthAdjust="spacing" textLength="52" x="935.5" y="485.897">contiene</text></g><!--link ni?o1 to pizarrin1--><g id="link_ni&#241;o1_pizarrin1"><path codeLine="121" d="M876.78,589.24 C874.82,613.56 872.702,639.8194 870.942,661.6594 " fill="none" id="ni&#241;o1-to-pizarrin1" style="stroke:#181818;stroke-width:1.0;"/><polygon fill="#181818" points="870.46,667.64,875.17,658.9904,870.8616,662.6562,867.1959,658.3478,870.46,667.64" style="stroke:#181818;stroke-width:1.0;"/><text fill="#000000" font-family="sans-serif" font-size="13" lengthAdjust="spacing" textLength="36" x="874.5" y="633.897">posee</text></g><!--link ni?o2 to pizarrin2--><g id="link_ni&#241;o2_pizarrin2"><path codeLine="122" d="M1094.01,589.24 C1093.65,613.56 1093.2679,639.8006 1092.9479,661.6406 " fill="none" id="ni&#241;o2-to-pizarrin2" style="stroke:#181818;stroke-width:1.0;"/><polygon fill="#181818" points="1092.86,667.64,1096.9914,658.6996,1092.9333,662.6405,1088.9923,658.5824,1092.86,667.64" style="stroke:#181818;stroke-width:1.0;"/><text fill="#000000" font-family="sans-serif" font-size="13" lengthAdjust="spacing" textLength="36" x="1094.5" y="633.897">posee</text></g><!--link ni?o3 to pizarrin3--><g id="link_ni&#241;o3_pizarrin3"><path codeLine="123" d="M1294.66,589.24 C1300.54,613.56 1306.9201,639.968 1312.2001,661.808 " fill="none" id="ni&#241;o3-to-pizarrin3" style="stroke:#181818;stroke-width:1.0;"/><polygon fill="#181818" points="1313.61,667.64,1315.3831,657.9521,1312.4351,662.78,1307.6071,659.832,1313.61,667.64" style="stroke:#181818;stroke-width:1.0;"/><text fill="#000000" font-family="sans-serif" font-size="13" lengthAdjust="spacing" textLength="36" x="1306.5" y="633.897">posee</text></g><!--link ni?o4 to pizarrin4--><g id="link_ni&#241;o4_pizarrin4"><path codeLine="124" d="M1479.65,589.24 C1486.24,613.56 1493.4103,640.009 1499.3303,661.849 " fill="none" id="ni&#241;o4-to-pizarrin4" style="stroke:#181818;stroke-width:1.0;"/><polygon fill="#181818" points="1500.9,667.64,1502.4061,657.907,1499.5919,662.8141,1494.6847,659.9999,1500.9,667.64" style="stroke:#181818;stroke-width:1.0;"/><text fill="#000000" font-family="sans-serif" font-size="13" lengthAdjust="spacing" textLength="36" x="1492.5" y="633.897">posee</text></g><!--link ni?o5 to pizarrin5--><g id="link_ni&#241;o5_pizarrin5"><path codeLine="125" d="M1651.99,589.24 C1652.35,613.56 1652.7321,639.8006 1653.0521,661.6406 " fill="none" id="ni&#241;o5-to-pizarrin5" style="stroke:#181818;stroke-width:1.0;"/><polygon fill="#181818" points="1653.14,667.64,1657.0077,658.5824,1653.0667,662.6405,1649.0086,658.6996,1653.14,667.64" style="stroke:#181818;stroke-width:1.0;"/><text fill="#000000" font-family="sans-serif" font-size="13" lengthAdjust="spacing" textLength="36" x="1653.5" y="633.897">posee</text></g><!--link ni?o6 to pizarrin6--><g id="link_ni&#241;o6_pizarrin6"><path codeLine="126" d="M697.56,589.24 C693.99,613.56 690.1398,639.8634 686.9398,661.7034 " fill="none" id="ni&#241;o6-to-pizarrin6" style="stroke:#181818;stroke-width:1.0;"/><polygon fill="#181818" points="686.07,667.64,691.3325,659.315,686.7949,662.6928,683.417,658.1552,686.07,667.64" style="stroke:#181818;stroke-width:1.0;"/><text fill="#000000" font-family="sans-serif" font-size="13" lengthAdjust="spacing" textLength="36" x="693.5" y="633.897">posee</text></g><!--link pizarraSalon to ni?o1--><g id="link_pizarraSalon_ni&#241;o1"><path codeLine="128" d="M854.39,342.32 C859.42,384.62 869.0809,465.882 874.8009,513.942 " fill="none" id="pizarraSalon-to-ni&#241;o1" style="stroke:#181818;stroke-width:1.0;"/><polygon fill="#181818" points="875.51,519.9,878.4183,510.4903,874.9191,514.935,870.4744,511.4358,875.51,519.9" style="stroke:#181818;stroke-width:1.0;"/><text fill="#000000" font-family="sans-serif" font-size="13" lengthAdjust="spacing" textLength="87" x="866.5" y="411.897">tiene la pizarra</text></g><!--SRC=[ZPNFJjmm4CRlVefept1OEyaX4fKAR855ua1xeA0UJDPTZ8Azofz3YtYeFaDVhBRZ91x7RdOlZlDzyvj9F9cLpw-iR9EgsycMbJHvHudwlKd1MrdViv8TIYv5SfPKltQSkkAsOtkf1CgRbruuyD-qhkabgxxIoWJPEsQBFX2IDfjcsLIbhEWT__j7DiglDvlcm6egTjB8h6dfjjlhlT9_qgfXvhxG8T-wMkZRegig1sygYk4jB01lwox4rfkrGmSrsYnYoF341cLzaepNsBacFvo8ZRXGD1L7l0H3LJw-h-QaluFjIkoQsZMpQnvCbJkftFCPZfw9XhuoPLmzVFzyVd6v-N9rVRDoWleQXjBastDjtEOjhrTE9_2f1RXO-mGS9k0e0Vi44YQGA87uX3HCIAE4r2TaOK8M9MG-8GyJyYZ1FS2ftMQKiKVdP-9zBrEVnY7uQ0Y9GyWIP6oMevjnR8v0nAEEKFxjRIY212Aca8TGI3eBYTIV7MlCeyPn8f-UVh83ivZDPUZgvru11ZHqWE-zy0UsIchoQ2USSaMoLxDI9QIeJp9OXZdb610CrKwdImiL9bhE1FkV3n_f8wuFkGLfcnrK7chcm8iEikX85ntPeYC73sEBdqvDVnNgo6J36B9rkoA68W4YWM8An1IA6H0pAEP0p4SHWSu2BzyyJwB-Ugpb7m00]--></g></svg>