<?xml version="1.0" encoding="us-ascii" standalone="no"?><svg xmlns="http://www.w3.org/2000/svg" xmlns:xlink="http://www.w3.org/1999/xlink" contentStyleType="text/css" height="417px" preserveAspectRatio="none" style="width:494px;height:417px;background:#FFFFFF;" version="1.1" viewBox="0 0 494 417" width="494px" zoomAndPan="magnify"><defs/><g><g id="elem_ludoteca"><rect fill="#F1F1F1" height="88.2717" style="stroke:#181818;stroke-width:0.5;" width="220" x="166" y="7"/><text fill="#000000" font-family="sans-serif" font-size="14" lengthAdjust="spacing" textLength="58" x="247" y="23.9659">ludoteca</text><line style="stroke:#181818;stroke-width:0.5;" x1="167" x2="385" y1="30.0679" y2="30.0679"/><text fill="#000000" font-family="sans-serif" font-size="14" lengthAdjust="spacing" textLength="170" x="172" y="49.0339">monitorRecepcion = lydia</text><text fill="#000000" font-family="sans-serif" font-size="14" lengthAdjust="spacing" textLength="143" x="172" y="68.1018">monitorJuego = aisha</text><text fill="#000000" font-family="sans-serif" font-size="14" lengthAdjust="spacing" textLength="208" x="172" y="87.1697">pizarraDelSalon = pizarraSalon</text></g><g id="elem_lydia"><rect fill="#F1F1F1" height="88.2717" style="stroke:#181818;stroke-width:0.5;" width="156" x="7" y="174"/><text fill="#000000" font-family="sans-serif" font-size="14" lengthAdjust="spacing" textLength="32" x="69" y="190.9659">lydia</text><line style="stroke:#181818;stroke-width:0.5;" x1="8" x2="162" y1="197.0679" y2="197.0679"/><text fill="#000000" font-family="sans-serif" font-size="14" lengthAdjust="spacing" textLength="144" x="13" y="216.0339">colaNi&#241;os = colaVacia</text><text fill="#000000" font-family="sans-serif" font-size="14" lengthAdjust="spacing" textLength="132" x="13" y="235.1018">estaJugando = false</text><text fill="#000000" font-family="sans-serif" font-size="14" lengthAdjust="spacing" textLength="112" x="13" y="254.1697">ni&#241;oTurno = null</text></g><g id="elem_aisha"><rect fill="#F1F1F1" height="88.2717" style="stroke:#181818;stroke-width:0.5;" width="156" x="198" y="174"/><text fill="#000000" font-family="sans-serif" font-size="14" lengthAdjust="spacing" textLength="36" x="258" y="190.9659">aisha</text><line style="stroke:#181818;stroke-width:0.5;" x1="199" x2="353" y1="197.0679" y2="197.0679"/><text fill="#000000" font-family="sans-serif" font-size="14" lengthAdjust="spacing" textLength="144" x="204" y="216.0339">colaNi&#241;os = colaVacia</text><text fill="#000000" font-family="sans-serif" font-size="14" lengthAdjust="spacing" textLength="132" x="204" y="235.1018">estaJugando = false</text><text fill="#000000" font-family="sans-serif" font-size="14" lengthAdjust="spacing" textLength="112" x="204" y="254.1697">ni&#241;oTurno = null</text></g><g id="elem_colaVacia"><rect fill="#F1F1F1" height="69.2038" style="stroke:#181818;stroke-width:0.5;" width="119" x="120.5" y="341"/><text fill="#000000" font-family="sans-serif" font-size="14" lengthAdjust="spacing" textLength="62" x="149" y="357.9659">colaVacia</text><line style="stroke:#181818;stroke-width:0.5;" x1="121.5" x2="238.5" y1="364.0679" y2="364.0679"/><text fill="#000000" font-family="sans-serif" font-size="14" lengthAdjust="spacing" textLength="63" x="126.5" y="383.0339">ni&#241;os = []</text><text fill="#000000" font-family="sans-serif" font-size="14" lengthAdjust="spacing" textLength="107" x="126.5" y="402.1018">ni&#241;osEnCola = 0</text></g><g id="elem_pizarraSalon"><rect fill="#F1F1F1" height="50.1358" style="stroke:#181818;stroke-width:0.5;" width="99" x="389.5" y="193"/><text fill="#000000" font-family="sans-serif" font-size="14" lengthAdjust="spacing" textLength="85" x="396.5" y="209.9659">pizarraSalon</text><line style="stroke:#181818;stroke-width:0.5;" x1="390.5" x2="487.5" y1="216.0679" y2="216.0679"/><text fill="#000000" font-family="sans-serif" font-size="14" lengthAdjust="spacing" textLength="85" x="395.5" y="235.0339">mensaje = ""</text></g><!--link ludoteca to lydia--><g id="link_ludoteca_lydia"><path codeLine="28" d="M195.95,95 C181.99,104.06 168.08,114.19 156,125 C140.06,139.26 128.6846,152.6417 116.6846,169.1017 " fill="none" id="ludoteca-to-lydia" style="stroke:#181818;stroke-width:1.0;"/><polygon fill="#181818" points="113.15,173.95,121.6842,169.0339,116.0955,169.9097,115.2197,164.3211,113.15,173.95" style="stroke:#181818;stroke-width:1.0;"/><text fill="#000000" font-family="sans-serif" font-size="13" lengthAdjust="spacing" textLength="110" x="157" y="139.897">monitorRecepcion</text></g><!--link ludoteca to aisha--><g id="link_ludoteca_aisha"><path codeLine="29" d="M276,95.35 C276,119.6 276,143.73 276,167.94 " fill="none" id="ludoteca-to-aisha" style="stroke:#181818;stroke-width:1.0;"/><polygon fill="#181818" points="276,173.94,280,164.94,276,168.94,272,164.94,276,173.94" style="stroke:#181818;stroke-width:1.0;"/><text fill="#000000" font-family="sans-serif" font-size="13" lengthAdjust="spacing" textLength="84" x="277" y="139.897">monitorJuego</text></g><!--link ludoteca to pizarraSalon--><g id="link_ludoteca_pizarraSalon"><path codeLine="30" d="M336.7,95.28 C348.24,104.56 359.86,114.69 370,125 C390.72,146.07 407.1941,168.5496 420.2341,187.9596 " fill="none" id="ludoteca-to-pizarraSalon" style="stroke:#181818;stroke-width:1.0;"/><polygon fill="#181818" points="423.58,192.94,421.8814,183.2387,420.7917,188.7896,415.2408,187.7,423.58,192.94" style="stroke:#181818;stroke-width:1.0;"/><text fill="#000000" font-family="sans-serif" font-size="13" lengthAdjust="spacing" textLength="93" x="387" y="139.897">pizarraDelSalon</text></g><!--link lydia to colaVacia--><g id="link_lydia_colaVacia"><path codeLine="32" d="M111.46,262.32 C126.62,287.12 142.2222,312.6598 156.2722,335.6598 " fill="none" id="lydia-to-colaVacia" style="stroke:#181818;stroke-width:1.0;"/><polygon fill="#181818" points="159.4,340.78,158.1218,331.0144,156.7935,336.5131,151.2948,335.1848,159.4,340.78" style="stroke:#181818;stroke-width:1.0;"/><text fill="#000000" font-family="sans-serif" font-size="13" lengthAdjust="spacing" textLength="52" x="143" y="306.897">gestiona</text></g><!--link aisha to colaVacia--><g id="link_aisha_colaVacia"><path codeLine="33" d="M249.26,262.32 C233.95,287.12 218.172,312.6746 203.972,335.6746 " fill="none" id="aisha-to-colaVacia" style="stroke:#181818;stroke-width:1.0;"/><polygon fill="#181818" points="200.82,340.78,208.9516,335.2233,203.4467,336.5255,202.1444,331.0206,200.82,340.78" style="stroke:#181818;stroke-width:1.0;"/><text fill="#000000" font-family="sans-serif" font-size="13" lengthAdjust="spacing" textLength="52" x="232" y="306.897">gestiona</text></g><!--SRC=[jP6nRW8n38RtF4N4ZiHyKbaA2mC3HInL1vDpZw1WeyjbAAWFrMVeYzN91Pe3CPBDzk__YstUxj5qseMQEpIWpqhBEp3PZjiL6ZmQowHVjFkgBPJ5HS26fG3Mx_h2qPwWRM66xWrSQigP5AflfJZJebT66NQmjBy_x4KVWmsO34BVmI8qG7NaV8BpcF8KvUlGKanJSAwmJhzvZlNL8TlJnVhzeuZdz2ewoKwArd8FbnKZUTYZ24UZgBnUO3oUvWLLTtSOglfPgy51Xee1jxeza40J9oh_Xwjq8ziH6AWUyAZy1m00]--></g></svg>