<?xml version="1.0" encoding="us-ascii" standalone="no"?><svg xmlns="http://www.w3.org/2000/svg" xmlns:xlink="http://www.w3.org/1999/xlink" contentStyleType="text/css" height="443px" preserveAspectRatio="none" style="width:572px;height:443px;background:#FFFFFF;" version="1.1" viewBox="0 0 572 443" width="572px" zoomAndPan="magnify"><defs/><g><!--class Ludoteca--><g id="elem_Ludoteca"><rect fill="#F1F1F1" height="48" id="Ludoteca" rx="2.5" ry="2.5" style="stroke:#181818;stroke-width:0.5;" width="93" x="109" y="7"/><ellipse cx="124" cy="23" fill="#ADD1B2" rx="11" ry="11" style="stroke:#181818;stroke-width:1.0;"/><path d="M126.9688,28.6406 Q126.3906,28.9375 125.75,29.0781 Q125.1094,29.2344 124.4063,29.2344 Q121.9063,29.2344 120.5781,27.5938 Q119.2656,25.9375 119.2656,22.8125 Q119.2656,19.6875 120.5781,18.0313 Q121.9063,16.375 124.4063,16.375 Q125.1094,16.375 125.75,16.5313 Q126.4063,16.6875 126.9688,16.9844 L126.9688,19.7031 Q126.3438,19.125 125.75,18.8594 Q125.1563,18.5781 124.5313,18.5781 Q123.1875,18.5781 122.5,19.6563 Q121.8125,20.7188 121.8125,22.8125 Q121.8125,24.9063 122.5,25.9844 Q123.1875,27.0469 124.5313,27.0469 Q125.1563,27.0469 125.75,26.7813 Q126.3438,26.5 126.9688,25.9219 L126.9688,28.6406 Z " fill="#000000"/><text fill="#000000" font-family="sans-serif" font-size="14" lengthAdjust="spacing" textLength="61" x="138" y="28.432">Ludoteca</text><line style="stroke:#181818;stroke-width:0.5;" x1="110" x2="201" y1="39" y2="39"/><line style="stroke:#181818;stroke-width:0.5;" x1="110" x2="201" y1="47" y2="47"/></g><!--class MonitorRecepcion--><g id="elem_MonitorRecepcion"><rect fill="#F1F1F1" height="48" id="MonitorRecepcion" rx="2.5" ry="2.5" style="stroke:#181818;stroke-width:0.5;" width="154" x="165.5" y="134"/><ellipse cx="180.5" cy="150" fill="#ADD1B2" rx="11" ry="11" style="stroke:#181818;stroke-width:1.0;"/><path d="M183.4688,155.6406 Q182.8906,155.9375 182.25,156.0781 Q181.6094,156.2344 180.9063,156.2344 Q178.4063,156.2344 177.0781,154.5938 Q175.7656,152.9375 175.7656,149.8125 Q175.7656,146.6875 177.0781,145.0313 Q178.4063,143.375 180.9063,143.375 Q181.6094,143.375 182.25,143.5313 Q182.9063,143.6875 183.4688,143.9844 L183.4688,146.7031 Q182.8438,146.125 182.25,145.8594 Q181.6563,145.5781 181.0313,145.5781 Q179.6875,145.5781 179,146.6563 Q178.3125,147.7188 178.3125,149.8125 Q178.3125,151.9063 179,152.9844 Q179.6875,154.0469 181.0313,154.0469 Q181.6563,154.0469 182.25,153.7813 Q182.8438,153.5 183.4688,152.9219 L183.4688,155.6406 Z " fill="#000000"/><text fill="#000000" font-family="sans-serif" font-size="14" lengthAdjust="spacing" textLength="122" x="194.5" y="155.432">MonitorRecepcion</text><line style="stroke:#181818;stroke-width:0.5;" x1="166.5" x2="318.5" y1="166" y2="166"/><line style="stroke:#181818;stroke-width:0.5;" x1="166.5" x2="318.5" y1="174" y2="174"/></g><!--class MonitorJuego--><g id="elem_MonitorJuego"><rect fill="#F1F1F1" height="48" id="MonitorJuego" rx="2.5" ry="2.5" style="stroke:#181818;stroke-width:0.5;" width="123" x="7" y="134"/><ellipse cx="22" cy="150" fill="#ADD1B2" rx="11" ry="11" style="stroke:#181818;stroke-width:1.0;"/><path d="M24.9688,155.6406 Q24.3906,155.9375 23.75,156.0781 Q23.1094,156.2344 22.4063,156.2344 Q19.9063,156.2344 18.5781,154.5938 Q17.2656,152.9375 17.2656,149.8125 Q17.2656,146.6875 18.5781,145.0313 Q19.9063,143.375 22.4063,143.375 Q23.1094,143.375 23.75,143.5313 Q24.4063,143.6875 24.9688,143.9844 L24.9688,146.7031 Q24.3438,146.125 23.75,145.8594 Q23.1563,145.5781 22.5313,145.5781 Q21.1875,145.5781 20.5,146.6563 Q19.8125,147.7188 19.8125,149.8125 Q19.8125,151.9063 20.5,152.9844 Q21.1875,154.0469 22.5313,154.0469 Q23.1563,154.0469 23.75,153.7813 Q24.3438,153.5 24.9688,152.9219 L24.9688,155.6406 Z " fill="#000000"/><text fill="#000000" font-family="sans-serif" font-size="14" lengthAdjust="spacing" textLength="91" x="36" y="155.432">MonitorJuego</text><line style="stroke:#181818;stroke-width:0.5;" x1="8" x2="129" y1="166" y2="166"/><line style="stroke:#181818;stroke-width:0.5;" x1="8" x2="129" y1="174" y2="174"/></g><!--class Monitor--><g id="elem_Monitor"><rect fill="#F1F1F1" height="48" id="Monitor" rx="2.5" ry="2.5" style="stroke:#181818;stroke-width:0.5;" width="85" x="281" y="7"/><ellipse cx="296" cy="23" fill="#ADD1B2" rx="11" ry="11" style="stroke:#181818;stroke-width:1.0;"/><path d="M298.9688,28.6406 Q298.3906,28.9375 297.75,29.0781 Q297.1094,29.2344 296.4063,29.2344 Q293.9063,29.2344 292.5781,27.5938 Q291.2656,25.9375 291.2656,22.8125 Q291.2656,19.6875 292.5781,18.0313 Q293.9063,16.375 296.4063,16.375 Q297.1094,16.375 297.75,16.5313 Q298.4063,16.6875 298.9688,16.9844 L298.9688,19.7031 Q298.3438,19.125 297.75,18.8594 Q297.1563,18.5781 296.5313,18.5781 Q295.1875,18.5781 294.5,19.6563 Q293.8125,20.7188 293.8125,22.8125 Q293.8125,24.9063 294.5,25.9844 Q295.1875,27.0469 296.5313,27.0469 Q297.1563,27.0469 297.75,26.7813 Q298.3438,26.5 298.9688,25.9219 L298.9688,28.6406 Z " fill="#000000"/><text fill="#000000" font-family="sans-serif" font-size="14" lengthAdjust="spacing" textLength="53" x="310" y="28.432">Monitor</text><line style="stroke:#181818;stroke-width:0.5;" x1="282" x2="365" y1="39" y2="39"/><line style="stroke:#181818;stroke-width:0.5;" x1="282" x2="365" y1="47" y2="47"/></g><!--class Cola--><g id="elem_Cola"><rect fill="#F1F1F1" height="48" id="Cola" rx="2.5" ry="2.5" style="stroke:#181818;stroke-width:0.5;" width="61" x="355" y="134"/><ellipse cx="370" cy="150" fill="#ADD1B2" rx="11" ry="11" style="stroke:#181818;stroke-width:1.0;"/><path d="M372.9688,155.6406 Q372.3906,155.9375 371.75,156.0781 Q371.1094,156.2344 370.4063,156.2344 Q367.9063,156.2344 366.5781,154.5938 Q365.2656,152.9375 365.2656,149.8125 Q365.2656,146.6875 366.5781,145.0313 Q367.9063,143.375 370.4063,143.375 Q371.1094,143.375 371.75,143.5313 Q372.4063,143.6875 372.9688,143.9844 L372.9688,146.7031 Q372.3438,146.125 371.75,145.8594 Q371.1563,145.5781 370.5313,145.5781 Q369.1875,145.5781 368.5,146.6563 Q367.8125,147.7188 367.8125,149.8125 Q367.8125,151.9063 368.5,152.9844 Q369.1875,154.0469 370.5313,154.0469 Q371.1563,154.0469 371.75,153.7813 Q372.3438,153.5 372.9688,152.9219 L372.9688,155.6406 Z " fill="#000000"/><text fill="#000000" font-family="sans-serif" font-size="14" lengthAdjust="spacing" textLength="29" x="384" y="155.432">Cola</text><line style="stroke:#181818;stroke-width:0.5;" x1="356" x2="415" y1="166" y2="166"/><line style="stroke:#181818;stroke-width:0.5;" x1="356" x2="415" y1="174" y2="174"/></g><!--class Ni?o--><g id="elem_Ni&#241;o"><rect fill="#F1F1F1" height="48" id="Ni&#241;o" rx="2.5" ry="2.5" style="stroke:#181818;stroke-width:0.5;" width="64" x="415.5" y="261"/><ellipse cx="430.5" cy="277" fill="#ADD1B2" rx="11" ry="11" style="stroke:#181818;stroke-width:1.0;"/><path d="M433.4688,282.6406 Q432.8906,282.9375 432.25,283.0781 Q431.6094,283.2344 430.9063,283.2344 Q428.4063,283.2344 427.0781,281.5938 Q425.7656,279.9375 425.7656,276.8125 Q425.7656,273.6875 427.0781,272.0313 Q428.4063,270.375 430.9063,270.375 Q431.6094,270.375 432.25,270.5313 Q432.9063,270.6875 433.4688,270.9844 L433.4688,273.7031 Q432.8438,273.125 432.25,272.8594 Q431.6563,272.5781 431.0313,272.5781 Q429.6875,272.5781 429,273.6563 Q428.3125,274.7188 428.3125,276.8125 Q428.3125,278.9063 429,279.9844 Q429.6875,281.0469 431.0313,281.0469 Q431.6563,281.0469 432.25,280.7813 Q432.8438,280.5 433.4688,279.9219 L433.4688,282.6406 Z " fill="#000000"/><text fill="#000000" font-family="sans-serif" font-size="14" lengthAdjust="spacing" textLength="32" x="444.5" y="282.432">Ni&#241;o</text><line style="stroke:#181818;stroke-width:0.5;" x1="416.5" x2="478.5" y1="293" y2="293"/><line style="stroke:#181818;stroke-width:0.5;" x1="416.5" x2="478.5" y1="301" y2="301"/></g><!--class Pizarrin--><g id="elem_Pizarrin"><rect fill="#F1F1F1" height="48" id="Pizarrin" rx="2.5" ry="2.5" style="stroke:#181818;stroke-width:0.5;" width="84" x="405.5" y="388"/><ellipse cx="420.5" cy="404" fill="#ADD1B2" rx="11" ry="11" style="stroke:#181818;stroke-width:1.0;"/><path d="M423.4688,409.6406 Q422.8906,409.9375 422.25,410.0781 Q421.6094,410.2344 420.9063,410.2344 Q418.4063,410.2344 417.0781,408.5938 Q415.7656,406.9375 415.7656,403.8125 Q415.7656,400.6875 417.0781,399.0313 Q418.4063,397.375 420.9063,397.375 Q421.6094,397.375 422.25,397.5313 Q422.9063,397.6875 423.4688,397.9844 L423.4688,400.7031 Q422.8438,400.125 422.25,399.8594 Q421.6563,399.5781 421.0313,399.5781 Q419.6875,399.5781 419,400.6563 Q418.3125,401.7188 418.3125,403.8125 Q418.3125,405.9063 419,406.9844 Q419.6875,408.0469 421.0313,408.0469 Q421.6563,408.0469 422.25,407.7813 Q422.8438,407.5 423.4688,406.9219 L423.4688,409.6406 Z " fill="#000000"/><text fill="#000000" font-family="sans-serif" font-size="14" lengthAdjust="spacing" textLength="52" x="434.5" y="409.432">Pizarrin</text><line style="stroke:#181818;stroke-width:0.5;" x1="406.5" x2="488.5" y1="420" y2="420"/><line style="stroke:#181818;stroke-width:0.5;" x1="406.5" x2="488.5" y1="428" y2="428"/></g><!--class Juego--><g id="elem_Juego"><rect fill="#F1F1F1" height="48" id="Juego" rx="2.5" ry="2.5" style="stroke:#181818;stroke-width:0.5;" width="70" x="33.5" y="261"/><ellipse cx="48.5" cy="277" fill="#ADD1B2" rx="11" ry="11" style="stroke:#181818;stroke-width:1.0;"/><path d="M51.4688,282.6406 Q50.8906,282.9375 50.25,283.0781 Q49.6094,283.2344 48.9063,283.2344 Q46.4063,283.2344 45.0781,281.5938 Q43.7656,279.9375 43.7656,276.8125 Q43.7656,273.6875 45.0781,272.0313 Q46.4063,270.375 48.9063,270.375 Q49.6094,270.375 50.25,270.5313 Q50.9063,270.6875 51.4688,270.9844 L51.4688,273.7031 Q50.8438,273.125 50.25,272.8594 Q49.6563,272.5781 49.0313,272.5781 Q47.6875,272.5781 47,273.6563 Q46.3125,274.7188 46.3125,276.8125 Q46.3125,278.9063 47,279.9844 Q47.6875,281.0469 49.0313,281.0469 Q49.6563,281.0469 50.25,280.7813 Q50.8438,280.5 51.4688,279.9219 L51.4688,282.6406 Z " fill="#000000"/><text fill="#000000" font-family="sans-serif" font-size="14" lengthAdjust="spacing" textLength="38" x="62.5" y="282.432">Juego</text><line style="stroke:#181818;stroke-width:0.5;" x1="34.5" x2="102.5" y1="293" y2="293"/><line style="stroke:#181818;stroke-width:0.5;" x1="34.5" x2="102.5" y1="301" y2="301"/></g><!--class Pizarra--><g id="elem_Pizarra"><rect fill="#F1F1F1" height="48" id="Pizarra" rx="2.5" ry="2.5" style="stroke:#181818;stroke-width:0.5;" width="79" x="29" y="388"/><ellipse cx="44" cy="404" fill="#ADD1B2" rx="11" ry="11" style="stroke:#181818;stroke-width:1.0;"/><path d="M46.9688,409.6406 Q46.3906,409.9375 45.75,410.0781 Q45.1094,410.2344 44.4063,410.2344 Q41.9063,410.2344 40.5781,408.5938 Q39.2656,406.9375 39.2656,403.8125 Q39.2656,400.6875 40.5781,399.0313 Q41.9063,397.375 44.4063,397.375 Q45.1094,397.375 45.75,397.5313 Q46.4063,397.6875 46.9688,397.9844 L46.9688,400.7031 Q46.3438,400.125 45.75,399.8594 Q45.1563,399.5781 44.5313,399.5781 Q43.1875,399.5781 42.5,400.6563 Q41.8125,401.7188 41.8125,403.8125 Q41.8125,405.9063 42.5,406.9844 Q43.1875,408.0469 44.5313,408.0469 Q45.1563,408.0469 45.75,407.7813 Q46.3438,407.5 46.9688,406.9219 L46.9688,409.6406 Z " fill="#000000"/><text fill="#000000" font-family="sans-serif" font-size="14" lengthAdjust="spacing" textLength="47" x="58" y="409.432">Pizarra</text><line style="stroke:#181818;stroke-width:0.5;" x1="30" x2="107" y1="420" y2="420"/><line style="stroke:#181818;stroke-width:0.5;" x1="30" x2="107" y1="428" y2="428"/></g><!--link Ludoteca to MonitorRecepcion--><g id="link_Ludoteca_MonitorRecepcion"><path codeLine="2" d="M171.66,55.22 C187.29,77.67 207.4021,106.5756 223.0021,128.9856 " fill="none" id="Ludoteca-to-MonitorRecepcion" style="stroke:#181818;stroke-width:1.0;"/><polygon fill="#181818" points="226.43,133.91,224.571,124.2382,223.5734,129.8064,218.0052,128.8088,226.43,133.91" style="stroke:#181818;stroke-width:1.0;"/><text fill="#000000" font-family="sans-serif" font-size="13" lengthAdjust="spacing" textLength="52" x="205.5" y="99.897">contiene</text></g><!--link Ludoteca to MonitorJuego--><g id="link_Ludoteca_MonitorJuego"><path codeLine="3" d="M139.34,55.22 C123.71,77.67 103.5979,106.5756 87.9979,128.9856 " fill="none" id="Ludoteca-to-MonitorJuego" style="stroke:#181818;stroke-width:1.0;"/><polygon fill="#181818" points="84.57,133.91,92.9948,128.8088,87.4266,129.8064,86.429,124.2382,84.57,133.91" style="stroke:#181818;stroke-width:1.0;"/><text fill="#000000" font-family="sans-serif" font-size="13" lengthAdjust="spacing" textLength="52" x="118.5" y="99.897">contiene</text></g><!--reverse link Monitor to MonitorRecepcion--><g id="link_Monitor_MonitorRecepcion"><path codeLine="5" d="M302.0531,70.7728 C294.0131,85.0828 291.99,88.03 281.5,104 C274.91,114.03 267.17,124.74 260.33,133.9 " fill="none" id="Monitor-backto-MonitorRecepcion" style="stroke:#181818;stroke-width:1.0;"/><polygon fill="none" points="310.87,55.08,296.8222,67.8338,307.284,73.7117,310.87,55.08" style="stroke:#181818;stroke-width:1.0;"/></g><!--reverse link Monitor to MonitorJuego--><g id="link_Monitor_MonitorJuego"><path codeLine="6" d="M287.9147,67.6848 C271.5647,83.3548 261.25,91.01 237.5,104 C227.69,109.37 174.44,125.75 130.29,138.9 " fill="none" id="Monitor-backto-MonitorJuego" style="stroke:#181818;stroke-width:1.0;"/><polygon fill="none" points="300.91,55.23,283.7631,63.3531,292.0663,72.0166,300.91,55.23" style="stroke:#181818;stroke-width:1.0;"/></g><!--link Monitor to Cola--><g id="link_Monitor_Cola"><path codeLine="8" d="M335.02,55.22 C346.15,77.67 360.263,106.1253 371.383,128.5353 " fill="none" id="Monitor-to-Cola" style="stroke:#181818;stroke-width:1.0;"/><polygon fill="#181818" points="374.05,133.91,373.6327,124.07,371.8275,129.4311,366.4664,127.6259,374.05,133.91" style="stroke:#181818;stroke-width:1.0;"/><text fill="#000000" font-family="sans-serif" font-size="13" lengthAdjust="spacing" textLength="52" x="358.5" y="99.897">gestiona</text></g><!--link Monitor to Ni?o--><g id="link_Monitor_Ni&#241;o"><path codeLine="9" d="M366.39,47.55 C384.89,56.13 405.46,68.45 419.5,85 C463.42,136.78 475,163.91 464.5,231 C462.93,241.02 461.7467,246.068 458.5867,255.228 " fill="none" id="Monitor-to-Ni&#241;o" style="stroke:#181818;stroke-width:1.0;"/><polygon fill="#181818" points="456.63,260.9,463.3464,253.6965,458.2606,256.1734,455.7837,251.0876,456.63,260.9" style="stroke:#181818;stroke-width:1.0;"/><text fill="#000000" font-family="sans-serif" font-size="13" lengthAdjust="spacing" textLength="96" x="468.5" y="163.397">recibe y entrega</text></g><!--link Ni?o to Pizarrin--><g id="link_Ni&#241;o_Pizarrin"><path codeLine="11" d="M447.5,309.22 C447.5,331.67 447.5,359.5 447.5,381.91 " fill="none" id="Ni&#241;o-to-Pizarrin" style="stroke:#181818;stroke-width:1.0;"/><polygon fill="#181818" points="447.5,387.91,451.5,378.91,447.5,382.91,443.5,378.91,447.5,387.91" style="stroke:#181818;stroke-width:1.0;"/><text fill="#000000" font-family="sans-serif" font-size="13" lengthAdjust="spacing" textLength="36" x="448.5" y="353.897">posee</text></g><!--link Cola to Ni?o--><g id="link_Cola_Ni&#241;o"><path codeLine="13" d="M389.94,182.2 C393.28,196.74 398.64,215.57 406.5,231 C411.83,241.47 415.568,247.2639 422.698,256.0839 " fill="none" id="Cola-to-Ni&#241;o" style="stroke:#181818;stroke-width:1.0;"/><polygon fill="#181818" points="426.47,260.75,423.9227,251.2363,423.3267,256.8616,417.7013,256.2656,426.47,260.75" style="stroke:#181818;stroke-width:1.0;"/><text fill="#000000" font-family="sans-serif" font-size="13" lengthAdjust="spacing" textLength="52" x="407.5" y="226.897">contiene</text></g><!--link MonitorJuego to Juego--><g id="link_MonitorJuego_Juego"><path codeLine="15" d="M68.5,182.22 C68.5,204.67 68.5,232.5 68.5,254.91 " fill="none" id="MonitorJuego-to-Juego" style="stroke:#181818;stroke-width:1.0;"/><polygon fill="#181818" points="68.5,260.91,72.5,251.91,68.5,255.91,64.5,251.91,68.5,260.91" style="stroke:#181818;stroke-width:1.0;"/><text fill="#000000" font-family="sans-serif" font-size="13" lengthAdjust="spacing" textLength="30" x="69.5" y="226.897">inicia</text></g><!--link Juego to Pizarra--><g id="link_Juego_Pizarra"><path codeLine="17" d="M68.5,309.22 C68.5,331.67 68.5,359.5 68.5,381.91 " fill="none" id="Juego-to-Pizarra" style="stroke:#181818;stroke-width:1.0;"/><polygon fill="#181818" points="68.5,387.91,72.5,378.91,68.5,382.91,64.5,378.91,68.5,387.91" style="stroke:#181818;stroke-width:1.0;"/><text fill="#000000" font-family="sans-serif" font-size="13" lengthAdjust="spacing" textLength="42" x="69.5" y="353.897">escribe</text></g><!--SRC=[ROz12i8m44NtESLS81SGSUDEgeWtYECd34Yc9Eb2yL8zWnSpQPLMslNx_ysVfhjf1ZkoTaT73P8rNi1eMJJGXbX35WIOPYLuwE1r7Z9VGDkNjGlTAXqSKx7QztftnUgHSccvFtQITrzFHh1SGGz2o17U6JEIcZdBqyKeTNwh2MNMO9pN5ul7LshazvG4OIdUYOpUEWs9OpblFW00]--></g></svg>