<?xml version="1.0" encoding="us-ascii" standalone="no"?><svg xmlns="http://www.w3.org/2000/svg" xmlns:xlink="http://www.w3.org/1999/xlink" contentStyleType="text/css" height="768px" preserveAspectRatio="none" style="width:502px;height:768px;background:#FFFFFF;" version="1.1" viewBox="0 0 502 768" width="502px" zoomAndPan="magnify"><defs/><g><ellipse cx="307" cy="16" fill="#222222" rx="10" ry="10" style="stroke:#222222;stroke-width:1.0;"/><g id="EsperandoConLydia"><rect fill="#F1F1F1" height="71.7561" rx="12.5" ry="12.5" style="stroke:#181818;stroke-width:0.5;" width="211" x="201.5" y="87"/><line style="stroke:#181818;stroke-width:0.5;" x1="201.5" x2="412.5" y1="116.0679" y2="116.0679"/><text fill="#000000" font-family="sans-serif" font-size="14" lengthAdjust="spacing" textLength="133" x="240.5" y="106.9659">EsperandoConLydia</text><text fill="#000000" font-family="sans-serif" font-size="12" lengthAdjust="spacing" textLength="145" x="206.5" y="133.896">El ni&#241;o est&#225; en la ludoteca</text><text fill="#000000" font-family="sans-serif" font-size="12" lengthAdjust="spacing" textLength="191" x="206.5" y="150.2401">esperando que comience el juego.</text></g><g id="EnCola"><rect fill="#F1F1F1" height="71.7561" rx="12.5" ry="12.5" style="stroke:#181818;stroke-width:0.5;" width="140" x="237" y="238"/><line style="stroke:#181818;stroke-width:0.5;" x1="237" x2="377" y1="267.0679" y2="267.0679"/><text fill="#000000" font-family="sans-serif" font-size="14" lengthAdjust="spacing" textLength="46" x="284" y="257.9659">EnCola</text><text fill="#000000" font-family="sans-serif" font-size="12" lengthAdjust="spacing" textLength="120" x="242" y="284.896">El ni&#241;o est&#225; en la cola</text><text fill="#000000" font-family="sans-serif" font-size="12" lengthAdjust="spacing" textLength="112" x="242" y="301.2401">esperando su turno.</text></g><g id="RecibiendoMensaje"><rect fill="#F1F1F1" height="55.412" rx="12.5" ry="12.5" style="stroke:#181818;stroke-width:0.5;" width="162" x="7" y="397.5"/><line style="stroke:#181818;stroke-width:0.5;" x1="7" x2="169" y1="426.5679" y2="426.5679"/><text fill="#000000" font-family="sans-serif" font-size="14" lengthAdjust="spacing" textLength="132" x="22" y="417.4659">RecibiendoMensaje</text><text fill="#000000" font-family="sans-serif" font-size="12" lengthAdjust="spacing" textLength="142" x="12" y="444.396">El ni&#241;o recibe el mensaje.</text></g><g id="ModificandoMensaje"><rect fill="#F1F1F1" height="71.7561" rx="12.5" ry="12.5" style="stroke:#181818;stroke-width:0.5;" width="161" x="70.5" y="540"/><line style="stroke:#181818;stroke-width:0.5;" x1="70.5" x2="231.5" y1="569.0679" y2="569.0679"/><text fill="#000000" font-family="sans-serif" font-size="14" lengthAdjust="spacing" textLength="141" x="80.5" y="559.9659">ModificandoMensaje</text><text fill="#000000" font-family="sans-serif" font-size="12" lengthAdjust="spacing" textLength="101" x="75.5" y="586.896">El ni&#241;o modifica el</text><text fill="#000000" font-family="sans-serif" font-size="12" lengthAdjust="spacing" textLength="130" x="75.5" y="603.2401">mensaje en su pizarr&#237;n.</text></g><g id="PasandoMensaje"><rect fill="#F1F1F1" height="71.7561" rx="12.5" ry="12.5" style="stroke:#181818;stroke-width:0.5;" width="171" x="221.5" y="691"/><line style="stroke:#181818;stroke-width:0.5;" x1="221.5" x2="392.5" y1="720.0679" y2="720.0679"/><text fill="#000000" font-family="sans-serif" font-size="14" lengthAdjust="spacing" textLength="114" x="250" y="710.9659">PasandoMensaje</text><text fill="#000000" font-family="sans-serif" font-size="12" lengthAdjust="spacing" textLength="151" x="226.5" y="737.896">El ni&#241;o muestra el mensaje</text><text fill="#000000" font-family="sans-serif" font-size="12" lengthAdjust="spacing" textLength="150" x="226.5" y="754.2401">al siguiente ni&#241;o en la cola.</text></g><g id="EscribiendoEnPizarra"><rect fill="#F1F1F1" height="71.7561" rx="12.5" ry="12.5" style="stroke:#181818;stroke-width:0.5;" width="205" x="204.5" y="389"/><line style="stroke:#181818;stroke-width:0.5;" x1="204.5" x2="409.5" y1="418.0679" y2="418.0679"/><text fill="#000000" font-family="sans-serif" font-size="14" lengthAdjust="spacing" textLength="143" x="235.5" y="408.9659">EscribiendoEnPizarra</text><text fill="#000000" font-family="sans-serif" font-size="12" lengthAdjust="spacing" textLength="130" x="209.5" y="435.896">El ni&#241;o lleva el mensaje</text><text fill="#000000" font-family="sans-serif" font-size="12" lengthAdjust="spacing" textLength="185" x="209.5" y="452.2401">a la pizarra del sal&#243;n y lo escribe.</text></g><ellipse cx="307" cy="576" fill="none" rx="11" ry="11" style="stroke:#222222;stroke-width:1.0;"/><ellipse cx="307" cy="576" fill="#222222" rx="6" ry="6" style="stroke:#222222;stroke-width:1.0;"/><!--link *start* to EsperandoConLydia--><g id="link_*start*_EsperandoConLydia"><path d="M307,26.32 C307,39.77 307,59.35 307,80.69 " fill="none" id="*start*-to-EsperandoConLydia" style="stroke:#181818;stroke-width:1.0;"/><polygon fill="#181818" points="307,86.69,311,77.69,307,81.69,303,77.69,307,86.69" style="stroke:#181818;stroke-width:1.0;"/></g><!--link EsperandoConLydia to EnCola--><g id="link_EsperandoConLydia_EnCola"><path d="M307,159.31 C307,183.06 307,208.24 307,231.94 " fill="none" id="EsperandoConLydia-to-EnCola" style="stroke:#181818;stroke-width:1.0;"/><polygon fill="#181818" points="307,237.94,311,228.94,307,232.94,303,228.94,307,237.94" style="stroke:#181818;stroke-width:1.0;"/><text fill="#000000" font-family="sans-serif" font-size="13" lengthAdjust="spacing" textLength="70" x="308" y="203.897">pasar a cola</text></g><!--link EnCola to RecibiendoMensaje--><g id="link_EnCola_RecibiendoMensaje"><path d="M252.26,310.05 C237.49,319.64 221.57,330.13 207,340 C179.26,358.8 153.241,377.1506 129.881,393.8506 " fill="none" id="EnCola-to-RecibiendoMensaje" style="stroke:#181818;stroke-width:1.0;"/><polygon fill="#181818" points="125,397.34,134.6478,395.3599,129.0675,394.4322,129.9952,388.8519,125,397.34" style="stroke:#181818;stroke-width:1.0;"/><text fill="#000000" font-family="sans-serif" font-size="13" lengthAdjust="spacing" textLength="90" x="208" y="354.897">recibir mensaje</text></g><!--link RecibiendoMensaje to ModificandoMensaje--><g id="link_RecibiendoMensaje_ModificandoMensaje"><path d="M99.26,452.64 C109.56,477 122.534,507.6634 133.824,534.3734 " fill="none" id="RecibiendoMensaje-to-ModificandoMensaje" style="stroke:#181818;stroke-width:1.0;"/><polygon fill="#181818" points="136.16,539.9,136.3404,530.0528,134.2133,535.2945,128.9716,533.1675,136.16,539.9" style="stroke:#181818;stroke-width:1.0;"/><text fill="#000000" font-family="sans-serif" font-size="13" lengthAdjust="spacing" textLength="109" x="125" y="505.897">modificar mensaje</text></g><!--link ModificandoMensaje to PasandoMensaje--><g id="link_ModificandoMensaje_PasandoMensaje"><path d="M187.97,612.31 C212.84,636.06 241.1406,663.0964 265.9606,686.7964 " fill="none" id="ModificandoMensaje-to-PasandoMensaje" style="stroke:#181818;stroke-width:1.0;"/><polygon fill="#181818" points="270.3,690.94,266.5533,681.8316,266.6838,687.487,261.0285,687.6175,270.3,690.94" style="stroke:#181818;stroke-width:1.0;"/><text fill="#000000" font-family="sans-serif" font-size="13" lengthAdjust="spacing" textLength="86" x="240" y="656.897">pasar mensaje</text></g><!--link PasandoMensaje to EnCola--><g id="link_PasandoMensaje_EnCola"><path d="M329.09,690.88 C358.54,641.73 409.03,548.57 427,461 C427.31,459.49 432.13,355.49 422,340 C411.14,323.4 399.7353,313.5211 382.4453,303.8411 " fill="none" id="PasandoMensaje-to-EnCola" style="stroke:#181818;stroke-width:1.0;"/><polygon fill="#181818" points="377.21,300.91,383.109,308.7968,381.5728,303.3526,387.0171,301.8164,377.21,300.91" style="stroke:#181818;stroke-width:1.0;"/><text fill="#000000" font-family="sans-serif" font-size="13" lengthAdjust="spacing" textLength="74" x="420" y="505.897">volver a cola</text></g><!--link EnCola to EscribiendoEnPizarra--><g id="link_EnCola_EscribiendoEnPizarra"><path d="M307,310.31 C307,334.06 307,359.24 307,382.94 " fill="none" id="EnCola-to-EscribiendoEnPizarra" style="stroke:#181818;stroke-width:1.0;"/><polygon fill="#181818" points="307,388.94,311,379.94,307,383.94,303,379.94,307,388.94" style="stroke:#181818;stroke-width:1.0;"/><text fill="#000000" font-family="sans-serif" font-size="13" lengthAdjust="spacing" textLength="105" x="308" y="354.897">escribir en pizarra</text></g><!--link EscribiendoEnPizarra to *end*--><g id="link_EscribiendoEnPizarra_*end*"><path d="M307,461.31 C307,495.05 307,537.77 307,558.75 " fill="none" id="EscribiendoEnPizarra-to-*end*" style="stroke:#181818;stroke-width:1.0;"/><polygon fill="#181818" points="307,564.75,311,555.75,307,559.75,303,555.75,307,564.75" style="stroke:#181818;stroke-width:1.0;"/><text fill="#000000" font-family="sans-serif" font-size="13" lengthAdjust="spacing" textLength="89" x="308" y="505.897">terminar juego</text></g><!--SRC=[RLCxRiCm3Drp2iu5qWDaw19uQu2WQvo1jTb0WKovacKWlKqFqA7e4NonKl8diQsLVdm_qQUdCsotBv2vcYnoQVQ6Ns-bmirg0Zl8DB3gVWsGQxfl80QDe7rf6YemPnfNuDCJ5APIn0K1QRXwkfZdJO8qYlFUwC1VeqCBAAjQ38pJf6g0F2ew3ust74NwnS3yHeLw5nUbEH0xl9BGsJYpKFMJJGepIKPmZ330XN-z4AGEfbGVgi0PJpKCxsf9s2GtuaKmvs4b19PqjVf2QxiV5WS9ac3XAFNDUFi-H-dLvxkibsejFiJC6JKuTV6Iiw6n_wbvyR1WcxrZQtHBouVipwomGtSP7sEYWAT-R8D2dpFSNn8wUTQQseNZu6vOXrA-EDJT7yCDj1aaADvWWZYOEyc_i8E6RALOQeit-my0]--></g></svg>